<svg fill="none" height="80" viewBox="0 0 80 80" width="80" xmlns="http://www.w3.org/2000/svg" xmlns:xlink="http://www.w3.org/1999/xlink"><clipPath id="a"><path d="m0 8c0-4.41828 3.58172-8 8-8h64c4.4183 0 8 3.58172 8 8v64c0 4.4183-3.5817 8-8 8h-64c-4.41828 0-8-3.5817-8-8z"/></clipPath><mask id="b" fill="#fff"><path d="m0 8c0-4.41828 3.58172-8 8-8h64c4.4183 0 8 3.58172 8 8v64c0 4.4183-3.5817 8-8 8h-64c-4.41828 0-8-3.5817-8-8z" fill="#fff"/></mask><mask id="c" fill="#000" height="82" maskUnits="userSpaceOnUse" width="67" x="10" y="-1"><path d="m10-1h67v82h-67z" fill="#fff"/><path d="m12.1541 79v-77.81818h30.7017c5.8769 0 10.8925 1.05125 15.0469 3.15376 4.1797 2.07718 7.3588 5.02829 9.5373 8.85332 2.2038 3.7997 3.3057 8.2707 3.3057 13.413 0 5.1676-1.1145 9.6133-3.3437 13.337-2.2292 3.6984-5.4589 6.5355-9.6893 8.5114-4.205 1.9758-9.2966 2.9638-15.2748 2.9638h-20.5565v-13.2231h17.8967c3.1411 0 5.7502-.4306 7.8274-1.2919 2.0771-.8612 3.6224-2.1531 4.6356-3.8757 1.0386-1.7225 1.5579-3.863 1.5579-6.4215 0-2.5838-.5193-4.7623-1.5579-6.5355-1.0132-1.7732-2.5711-3.1158-4.6736-4.0277-2.0772-.9373-4.699-1.4059-7.8654-1.4059h-11.0952v64.3672zm42.0249-35.4134 19.3405 35.4134h-18.1626l-18.9226-35.4134z" fill="#000"/></mask><g clip-path="url(#a)"><path d="m12.1541 79v-77.81818h30.7017c5.8769 0 10.8925 1.05125 15.0469 3.15376 4.1797 2.07718 7.3588 5.02829 9.5373 8.85332 2.2038 3.7997 3.3057 8.2707 3.3057 13.413 0 5.1676-1.1145 9.6133-3.3437 13.337-2.2292 3.6984-5.4589 6.5355-9.6893 8.5114-4.205 1.9758-9.2966 2.9638-15.2748 2.9638h-20.5565v-13.2231h17.8967c3.1411 0 5.7502-.4306 7.8274-1.2919 2.0771-.8612 3.6224-2.1531 4.6356-3.8757 1.0386-1.7225 1.5579-3.863 1.5579-6.4215 0-2.5838-.5193-4.7623-1.5579-6.5355-1.0132-1.7732-2.5711-3.1158-4.6736-4.0277-2.0772-.9373-4.699-1.4059-7.8654-1.4059h-11.0952v64.3672zm42.0249-35.4134 19.3405 35.4134h-18.1626l-18.9226-35.4134z" fill="#fc4c02"/><path d="m12.1541 79h-1.5v1.5h1.5zm0-77.81818v-1.500004h-1.5v1.500004zm45.7486 3.15376-.6774 1.3384.0098.00487zm9.5373 8.85332-1.3035.7424.0059.0102zm-.038 26.75 1.2847.7744.0023-.0039zm-9.6893 8.5114-.6348-1.3591-.0031.0015zm-35.8313 2.9638h-1.5v1.5h1.5zm0-13.2231v-1.5h-1.5v1.5zm25.7241-1.2919.5745 1.3857zm4.6356-3.8757-1.2845-.7745-.0042.007-.0042.007zm0-12.957-1.3023.7442.0039.007.0041.0069zm-4.6736-4.0277-.617 1.3673.01.0045.0101.0043zm-18.9606-1.4059v-1.5h-1.5v1.5zm0 64.3672v1.5h1.5v-1.5zm25.5721-35.4134 1.3164-.7189-.4265-.7811h-.8899zm19.3405 35.4134v1.5h2.5284l-1.2119-2.219zm-18.1626 0-1.323.7069.4238.7931h.8992zm-18.9226-35.4134v-1.5h-2.5022l1.1792 2.207zm-22.7802 35.4134v-77.81818h-3v77.81818zm-1.5-76.31818h30.7017v-3.000004h-30.7017zm30.7017 0c5.7017 0 10.473 1.02006 14.3696 2.99212l1.3546-2.67672c-4.4121-2.232961-9.6721-3.315404-15.7242-3.315404zm14.3793 2.99703c3.9297 1.95293 6.8796 4.70235 8.9015 8.25245l2.6068-1.4847c-2.3351-4.10009-5.7434-7.25286-10.1731-9.45428zm8.9073 8.26265c2.0502 3.5347 3.1033 7.7369 3.1033 12.6604h3c0-5.3611-1.1506-10.1008-3.5082-14.1656zm3.1033 12.6604c0 4.9484-1.0655 9.1166-3.1307 12.5666l2.574 1.5409c2.3931-3.9975 3.5567-8.7206 3.5567-14.1075zm-3.1284 12.5627c-2.0628 3.4224-5.0559 6.0661-9.0394 7.9266l1.2696 2.7181c4.4773-2.0911 7.9437-5.1217 10.3392-9.0961zm-9.0425 7.9281c-3.9568 1.8592-8.8183 2.8214-14.6369 2.8214v3c6.1378 0 11.4595-1.0137 15.9127-3.1062zm-14.6369 2.8214h-20.5565v3h20.5565zm-19.0565 1.5v-13.2231h-3v13.2231zm-1.5-11.7231h17.8967v-3h-17.8967zm17.8967 0c3.2655 0 6.0857-.4458 8.4019-1.4062l-1.1491-2.7713c-1.8381.7622-4.2362 1.1775-7.2528 1.1775zm8.4019-1.4062c2.3386-.9697 4.1551-2.4627 5.354-4.5008l-2.5858-1.5211c-.8276 1.4069-2.1015 2.4978-3.9173 3.2506zm5.3457-4.4868c1.2131-2.012 1.7733-4.4379 1.7733-7.1961h-3c0 2.3587-.4783 4.2139-1.3424 5.647zm1.7733-7.1961c0-2.7826-.5597-5.2383-1.7636-7.2936l-2.5886 1.5162c.8734 1.4911 1.3522 3.3924 1.3522 5.7774zm-1.7555-7.2797c-1.1935-2.0885-3.0175-3.6353-5.3792-4.6596l-1.1937 2.7522c1.8434.7996 3.1351 1.9379 3.9682 3.3958zm-5.3591-4.6508c-2.3311-1.0518-5.1807-1.5386-8.4823-1.5386v3c3.0312 0 5.4252.4505 7.2484 1.2732zm-8.4823-1.5386h-11.0952v3h11.0952zm-12.5952 1.5v64.3672h3v-64.3672zm1.5 62.8672h-16.4528v3h16.4528zm24.2556-33.1944 19.3406 35.4134 2.6329-1.438-19.3406-35.4133zm20.657 33.1944h-18.1626v3h18.1626zm-16.8396.7931-18.9226-35.4134-2.646 1.4139 18.9226 35.4133zm-20.2456-33.2065h17.7447v-3h-17.7447z" fill="#000" mask="url(#c)"/></g><path d="m8 1.5h64v-3h-64zm70.5 6.5v64h3v-64zm-6.5 70.5h-64v3h64zm-70.5-6.5v-64h-3v64zm6.5 6.5c-3.58985 0-6.5-2.9101-6.5-6.5h-3c0 5.2467 4.2533 9.5 9.5 9.5zm70.5-6.5c0 3.5899-2.9101 6.5-6.5 6.5v3c5.2467 0 9.5-4.2533 9.5-9.5zm-6.5-70.5c3.5899 0 6.5 2.91015 6.5 6.5h3c0-5.24671-4.2533-9.5-9.5-9.5zm-64-3c-5.24671 0-9.5 4.2533-9.5 9.5h3c0-3.58985 2.91015-6.5 6.5-6.5z" fill="#000" mask="url(#b)"/></svg>