<svg fill="none" height="80" viewBox="0 0 80 80" width="80" xmlns="http://www.w3.org/2000/svg" xmlns:xlink="http://www.w3.org/1999/xlink"><clipPath id="a"><path d="m0 8c0-4.41828 3.58172-8 8-8h64c4.4183 0 8 3.58172 8 8v64c0 4.4183-3.5817 8-8 8h-64c-4.41828 0-8-3.5817-8-8z"/></clipPath><mask id="b" fill="#fff"><path d="m0 8c0-4.41828 3.58172-8 8-8h64c4.4183 0 8 3.58172 8 8v64c0 4.4183-3.5817 8-8 8h-64c-4.41828 0-8-3.5817-8-8z" fill="#fff"/></mask><mask id="c" fill="#000" height="82" maskUnits="userSpaceOnUse" width="81" x="0" y="-1"><path d="m0-1h81v82h-81z" fill="#fff"/><path d="m21.3019 1.18182 18.8086 59.12358h.722l18.8466-59.12358h18.2386l-26.826 77.81818h-21.2024l-26.864-77.81818z" fill="#000"/></mask><g clip-path="url(#a)"><path d="m21.3019 1.18182 18.8086 59.12358h.722l18.8466-59.12358h18.2386l-26.826 77.81818h-21.2024l-26.864-77.81818z" fill="#fc4c02"/><path d="m21.3019 1.18182 1.4294-.454734-.3325-1.04527h-1.0969zm18.8086 59.12358-1.4294.4547.3325 1.0453h1.0969zm.722 0v1.5h1.0962l.3329-1.0444zm18.8466-59.12358v-1.500004h-1.0962l-.333 1.044437zm18.2386 0 1.4181.48885.6856-1.988854h-2.1037zm-26.826 77.81818v1.5h1.0695l.3486-1.0111zm-21.2024 0-1.4179.4895.3489 1.0105h1.069zm-26.864-77.81818v-1.500004h-2.104685l.686795 1.989474zm16.8472.45473 18.8086 59.12355 2.8588-.9094-18.8086-59.123614zm20.238 60.16885h.722v-3h-.722zm2.1511-1.0444 18.8466-59.12362-2.8583-.911127-18.8466 59.123547zm17.4175-58.07918h18.2386v-3.000004h-18.2386zm16.8205-1.988862-26.826 77.818142 2.8362.9778 26.826-77.81823zm-25.4079 76.807042h-21.2024v3h21.2024zm-19.7845 1.0105-26.86401-77.818161-2.83578.978951 26.86399 77.81821zm-28.2819-75.82868h18.2766v-3.000004h-18.2766z" fill="#000" mask="url(#c)"/></g><path d="m8 1.5h64v-3h-64zm70.5 6.5v64h3v-64zm-6.5 70.5h-64v3h64zm-70.5-6.5v-64h-3v64zm6.5 6.5c-3.58985 0-6.5-2.9101-6.5-6.5h-3c0 5.2467 4.2533 9.5 9.5 9.5zm70.5-6.5c0 3.5899-2.9101 6.5-6.5 6.5v3c5.2467 0 9.5-4.2533 9.5-9.5zm-6.5-70.5c3.5899 0 6.5 2.91015 6.5 6.5h3c0-5.24671-4.2533-9.5-9.5-9.5zm-64-3c-5.24671 0-9.5 4.2533-9.5 9.5h3c0-3.58985 2.91015-6.5 6.5-6.5z" fill="#000" mask="url(#b)"/></svg>