<svg fill="none" height="80" viewBox="0 0 80 80" width="80" xmlns="http://www.w3.org/2000/svg" xmlns:xlink="http://www.w3.org/1999/xlink"><clipPath id="a"><path d="m0 8c0-4.41828 3.58172-8 8-8h64c4.4183 0 8 3.58172 8 8v64c0 4.4183-3.5817 8-8 8h-64c-4.41828 0-8-3.5817-8-8z"/></clipPath><mask id="b" fill="#fff"><path d="m0 8c0-4.41828 3.58172-8 8-8h64c4.4183 0 8 3.58172 8 8v64c0 4.4183-3.5817 8-8 8h-64c-4.41828 0-8-3.5817-8-8z" fill="#fff"/></mask><mask id="c" fill="#000" height="82" maskUnits="userSpaceOnUse" width="88" x="-4" y="-1"><path d="m-4-1h88v82h-88z" fill="#fff"/><path d="m-2.1911 1.18182h20.2905l21.4304 52.28408h.9119l21.4304-52.28408h20.2905v77.81818h-15.9588v-50.6502h-.646l-20.1385 50.2702h-10.8671l-20.1385-50.4602h-.646v50.8402h-15.9588z" fill="#000"/></mask><g clip-path="url(#a)"><path d="m-2.1911 1.18182h20.2905l21.4304 52.28408h.9119l21.4304-52.28408h20.2905v77.81818h-15.9588v-50.6502h-.646l-20.1385 50.2702h-10.8671l-20.1385-50.4602h-.646v50.8402h-15.9588z" fill="#fc4c02"/><path d="m-2.1911 1.18182v-1.500004h-1.5v1.500004zm20.2905 0 1.3879-.568895-.3816-.931109h-1.0063zm21.4304 52.28408-1.388.5689.3817.9311h1.0063zm.9119 0v1.5h1.0063l.3817-.9311zm21.4304-52.28408v-1.500004h-1.0063l-.3816.931109zm20.2905 0h1.5v-1.500004h-1.5zm0 77.81818v1.5h1.5v-1.5zm-15.9588 0h-1.5v1.5h1.5zm0-50.6502h1.5v-1.5h-1.5zm-.646 0v-1.5h-1.0149l-.3775.9422zm-20.1385 50.2702v1.5h1.015l.3775-.9422zm-10.8671 0-1.3932.556.3768.944h1.0164zm-20.1385-50.4602 1.3931-.556-.3767-.944h-1.0164zm-.646 0v-1.5h-1.5v1.5zm0 50.8402v1.5h1.5v-1.5zm-15.9588 0h-1.5v1.5h1.5zm0-76.31818h20.2905v-3.000004h-20.2905zm18.9026-.93111 21.4303 52.28409 2.7759-1.1378-21.4304-52.284075zm22.8183 53.21519h.9119v-3h-.9119zm2.2999-.9311 21.4303-52.28409-2.7758-1.137785-21.4304 52.284075zm20.0424-51.35298h20.2905v-3.000004h-20.2905zm18.7905-1.5v77.81818h3v-77.81818zm1.5 76.31818h-15.9588v3h15.9588zm-14.4588 1.5v-50.6502h-3v50.6502zm-1.5-52.1502h-.646v3h.646zm-2.0384.9422-20.1385 50.2702 2.7849 1.1156 20.1385-50.2702zm-18.7461 49.328h-10.8671v3h10.8671zm-9.474.944-20.1385-50.4602-2.7863 1.112 20.1385 50.4602zm-21.5316-51.4042h-.646v3h.646zm-2.146 1.5v50.8402h3v-50.8402zm1.5 49.3402h-15.9588v3h15.9588zm-14.458795 1.5v-77.81818h-3.000005v77.81818z" fill="#000" mask="url(#c)"/></g><path d="m8 1.5h64v-3h-64zm70.5 6.5v64h3v-64zm-6.5 70.5h-64v3h64zm-70.5-6.5v-64h-3v64zm6.5 6.5c-3.58985 0-6.5-2.9101-6.5-6.5h-3c0 5.2467 4.2533 9.5 9.5 9.5zm70.5-6.5c0 3.5899-2.9101 6.5-6.5 6.5v3c5.2467 0 9.5-4.2533 9.5-9.5zm-6.5-70.5c3.5899 0 6.5 2.91015 6.5 6.5h3c0-5.24671-4.2533-9.5-9.5-9.5zm-64-3c-5.24671 0-9.5 4.2533-9.5 9.5h3c0-3.58985 2.91015-6.5 6.5-6.5z" fill="#000" mask="url(#b)"/></svg>