<svg fill="none" height="80" viewBox="0 0 80 80" width="80" xmlns="http://www.w3.org/2000/svg" xmlns:xlink="http://www.w3.org/1999/xlink"><clipPath id="a"><path d="m0 8c0-4.41828 3.58172-8 8-8h64c4.4183 0 8 3.58172 8 8v64c0 4.4183-3.5817 8-8 8h-64c-4.41828 0-8-3.5817-8-8z"/></clipPath><mask id="b" fill="#fff"><path d="m0 8c0-4.41828 3.58172-8 8-8h64c4.4183 0 8 3.58172 8 8v64c0 4.4183-3.5817 8-8 8h-64c-4.41828 0-8-3.5817-8-8z" fill="#fff"/></mask><mask id="c" fill="#000" height="81" maskUnits="userSpaceOnUse" width="54" x="11" y="-1"><path d="m11-1h54v81h-54z" fill="#fff"/><path d="m47.2017 1.36363h15.8068v52.73867c0 4.875-1.0956 9.1098-3.2869 12.7045-2.1667 3.5947-5.1828 6.3646-9.0483 8.3097s-8.3589 2.9176-13.4801 2.9176c-4.5549 0-8.6913-.8002-12.4091-2.4006-3.6932-1.625-6.6231-4.0871-8.7898-7.3863-2.1666-3.3239-3.2377-7.4972-3.2131-12.5199h15.9177c.0492 1.9943.4555 3.7055 1.2187 5.1335.7879 1.4034 1.8589 2.4867 3.2131 3.25 1.3788.7386 3.0038 1.108 4.875 1.108 1.9697 0 3.6316-.4186 4.9858-1.2557 1.3788-.8618 2.4252-2.1175 3.1392-3.7671s1.071-3.6808 1.071-6.0937z" fill="#000"/></mask><g clip-path="url(#a)"><path d="m47.2017 1.36363h15.8068v52.73867c0 4.875-1.0956 9.1098-3.2869 12.7045-2.1667 3.5947-5.1828 6.3646-9.0483 8.3097s-8.3589 2.9176-13.4801 2.9176c-4.5549 0-8.6913-.8002-12.4091-2.4006-3.6932-1.625-6.6231-4.0871-8.7898-7.3863-2.1666-3.3239-3.2377-7.4972-3.2131-12.5199h15.9177c.0492 1.9943.4555 3.7055 1.2187 5.1335.7879 1.4034 1.8589 2.4867 3.2131 3.25 1.3788.7386 3.0038 1.108 4.875 1.108 1.9697 0 3.6316-.4186 4.9858-1.2557 1.3788-.8618 2.4252-2.1175 3.1392-3.7671s1.071-3.6808 1.071-6.0937z" fill="#fc4c02"/><path d="m47.2017 1.36363v-1.499996h-1.5v1.499996zm15.8068 0h1.5v-1.499996h-1.5zm-3.2869 65.44317-1.2808-.7807-.0039.0064zm-9.0483 8.3097-.6742-1.3399zm-25.8892.517-.6041 1.373.011.0048zm-8.7898-7.3863-1.2566.8191.0028.0042zm-3.2131-12.5199v-1.5h-1.4926l-.0073 1.4926zm15.9177 0 1.4995-.0371-.0361-1.4629h-1.4634zm1.2187 5.1335-1.3229.7071.0073.0137.0076.0135zm3.2131 3.25-.7365 1.3067.014.0079.0141.0076zm9.8608-.1477.7887 1.2759.0063-.0039zm3.1392-3.7671 1.3766.5959zm1.071-57.33237h15.8068v-2.999996h-15.8068zm14.3068-1.5v52.73867h3v-52.73867zm0 52.73867c0 4.6438-1.0412 8.5994-3.0677 11.9238l2.5616 1.5615c2.356-3.865 3.5061-8.3791 3.5061-13.4853zm-3.0716 11.9302c-2.0159 3.3446-4.8168 5.922-8.4378 7.7441l1.3484 2.6798c4.1101-2.0681 7.3413-5.0304 9.6588-8.8753zm-8.4378 7.7441c-3.6213 1.8221-7.8761 2.7575-12.8059 2.7575v3c5.3126 0 10.0445-1.0097 14.1543-3.0777zm-12.8059 2.7575c-4.3765 0-8.3077-.7681-11.816-2.2783l-1.1862 2.7555c3.9273 1.6905 8.2689 2.5228 13.0022 2.5228zm-11.805-2.2735c-3.4344-1.5112-6.1361-3.7853-8.1401-6.8368l-2.5076 1.6467c2.3294 3.547 5.4875 6.1971 9.4395 7.936zm-8.1373-6.8326c-1.9687-3.0202-2.9932-6.8863-2.9697-11.6934l-2.9999-.0147c-.0257 5.2384 1.0918 9.7189 3.4564 13.3464zm-4.4697-10.2007h15.9177v-3h-15.9177zm14.4181-1.463c.0537 2.1751.4991 4.1266 1.3954 5.8036l2.6458-1.4142c-.6302-1.1791-.9973-2.6499-1.0421-4.4635zm1.4103 5.8308c.9174 1.6341 2.1824 2.9194 3.7846 3.8224l1.473-2.6134c-1.1061-.6235-1.9832-1.5048-2.6416-2.6776zm3.8127 3.8379c1.6356.8762 3.5133 1.2858 5.5834 1.2858v-3c-1.6724 0-3.0447-.3292-4.1667-.9302zm5.5834 1.2858c2.1824 0 4.1329-.465 5.7745-1.4798l-1.5775-2.5518c-1.0667.6594-2.44 1.0316-4.197 1.0316zm5.7808-1.4837c1.6637-1.0399 2.8992-2.5452 3.7208-4.4432l-2.7532-1.1917c-.6065 1.4012-1.4638 2.4072-2.5576 3.0909zm3.7208-4.4432c.8182-1.8903 1.1944-4.1381 1.1944-6.6896h-3c0 2.2742-.3378 4.0889-.9476 5.4979zm1.1944-6.6896v-52.73867h-3v52.73867z" fill="#000" mask="url(#c)"/></g><path d="m8 1.5h64v-3h-64zm70.5 6.5v64h3v-64zm-6.5 70.5h-64v3h64zm-70.5-6.5v-64h-3v64zm6.5 6.5c-3.58985 0-6.5-2.9101-6.5-6.5h-3c0 5.2467 4.2533 9.5 9.5 9.5zm70.5-6.5c0 3.5899-2.9101 6.5-6.5 6.5v3c5.2467 0 9.5-4.2533 9.5-9.5zm-6.5-70.5c3.5899 0 6.5 2.91015 6.5 6.5h3c0-5.24671-4.2533-9.5-9.5-9.5zm-64-3c-5.24671 0-9.5 4.2533-9.5 9.5h3c0-3.58985 2.91015-6.5 6.5-6.5z" fill="#000" mask="url(#b)"/></svg>