<svg fill="none" height="80" viewBox="0 0 80 80" width="80" xmlns="http://www.w3.org/2000/svg" xmlns:xlink="http://www.w3.org/1999/xlink"><clipPath id="a"><path d="m0 8c0-4.41828 3.58172-8 8-8h64c4.4183 0 8 3.58172 8 8v64c0 4.4183-3.5817 8-8 8h-64c-4.41828 0-8-3.5817-8-8z"/></clipPath><mask id="b" fill="#fff"><path d="m0 8c0-4.41828 3.58172-8 8-8h64c4.4183 0 8 3.58172 8 8v64c0 4.4183-3.5817 8-8 8h-64c-4.41828 0-8-3.5817-8-8z" fill="#fff"/></mask><mask id="c" fill="#000" height="82" maskUnits="userSpaceOnUse" width="71" x="8" y="-1"><path d="m8-1h71v82h-71z" fill="#fff"/><path d="m9.87775 79v-77.81818h16.45275v34.31148h1.0259l28.004-34.31148h19.7205l-28.8779 34.84338 29.2199 42.9748h-19.6826l-21.3164-31.9936-8.0934 9.8793v22.1143z" fill="#000"/></mask><g clip-path="url(#a)"><path d="m9.87775 79v-77.81818h16.45275v34.31148h1.0259l28.004-34.31148h19.7205l-28.8779 34.84338 29.2199 42.9748h-19.6826l-21.3164-31.9936-8.0934 9.8793v22.1143z" fill="#fc4c02"/><path d="m9.87775 79h-1.5v1.5h1.5zm0-77.81818v-1.500004h-1.5v1.500004zm16.45275 0h1.5v-1.500004h-1.5zm0 34.31148h-1.5v1.5h1.5zm1.0259 0v1.5h.712l.4501-.5516zm28.004-34.31148v-1.500004h-.712l-.4501.551545zm19.7205 0 1.1549.95717 2.0365-2.457174h-3.1914zm-28.8779 34.84338-1.1549-.9572-.7195.8682.634.9324zm29.2199 42.9748v1.5h2.8337l-1.5933-2.3434zm-19.6826 0-1.2483.8317.4453.6683h.803zm-21.3164-31.9936 1.2483-.8317-1.124-1.687-1.2846 1.5681zm-8.0934 9.8793-1.1603-.9506-.3397.4146v.536zm0 22.1143v1.5h1.5v-1.5zm-14.9527 0v-77.81818h-3.00005v77.81818zm-1.50005-76.31818h16.45275v-3.000004h-16.45275zm14.95275-1.5v34.31148h3v-34.31148zm1.5 35.81148h1.0259v-3h-1.0259zm2.188-.5516 28.0039-34.31143-2.3241-1.896909-28.0039 34.311439zm26.8419-33.75988h19.7205v-3.000004h-19.7205zm18.5656-2.45718-28.8779 34.84336 2.3098 1.9144 28.8779-34.84341zm-28.9634 36.64396 29.2198 42.9748 2.4809-1.6868-29.2198-42.9748zm30.4603 40.6314h-19.6826v3h19.6826zm-18.4343.6683-21.3164-31.9936-2.4966 1.6634 21.3164 31.9936zm-23.725-32.1125-8.0934 9.8793 2.3207 1.9011 8.0934-9.8792zm-8.4331 10.8299v22.1143h3v-22.1143zm1.5 20.6143h-16.45275v3h16.45275z" fill="#000" mask="url(#c)"/></g><path d="m8 1.5h64v-3h-64zm70.5 6.5v64h3v-64zm-6.5 70.5h-64v3h64zm-70.5-6.5v-64h-3v64zm6.5 6.5c-3.58985 0-6.5-2.9101-6.5-6.5h-3c0 5.2467 4.2533 9.5 9.5 9.5zm70.5-6.5c0 3.5899-2.9101 6.5-6.5 6.5v3c5.2467 0 9.5-4.2533 9.5-9.5zm-6.5-70.5c3.5899 0 6.5 2.91015 6.5 6.5h3c0-5.24671-4.2533-9.5-9.5-9.5zm-64-3c-5.24671 0-9.5 4.2533-9.5 9.5h3c0-3.58985 2.91015-6.5 6.5-6.5z" fill="#000" mask="url(#b)"/></svg>