<svg fill="none" height="80" viewBox="0 0 80 80" width="80" xmlns="http://www.w3.org/2000/svg" xmlns:xlink="http://www.w3.org/1999/xlink"><clipPath id="a"><path d="m0 8c0-4.41828 3.58172-8 8-8h64c4.4183 0 8 3.58172 8 8v64c0 4.4183-3.5817 8-8 8h-64c-4.41828 0-8-3.5817-8-8z"/></clipPath><mask id="b" fill="#fff"><path d="m0 8c0-4.41828 3.58172-8 8-8h64c4.4183 0 8 3.58172 8 8v64c0 4.4183-3.5817 8-8 8h-64c-4.41828 0-8-3.5817-8-8z" fill="#fff"/></mask><mask id="c" fill="#000" height="82" maskUnits="userSpaceOnUse" width="111" x="-15" y="-1"><path d="m-15-1h111v82h-111z" fill="#fff"/><path d="m9.34708 79-22.26638-77.81818h17.9727l12.881 54.06998h.646l14.2109-54.06998h15.3889l14.1729 54.18398h.684l12.881-54.18398h17.9727l-22.2664 77.81818h-16.0348l-14.8189-50.8782h-.6079l-14.7809 50.8782z" fill="#000"/></mask><g clip-path="url(#a)"><path d="m9.34708 79-22.26638-77.81818h17.9727l12.881 54.06998h.646l14.2109-54.06998h15.3889l14.1729 54.18398h.684l12.881-54.18398h17.9727l-22.2664 77.81818h-16.0348l-14.8189-50.8782h-.6079l-14.7809 50.8782z" fill="#fc4c02"/><path d="m9.34708 79-1.44213.4126.31113 1.0874h1.131zm-22.26638-77.81818v-1.500004h-1.9894l.5473 1.912644zm17.9727 0 1.45917-.34762-.27453-1.152384h-1.18464zm12.881 54.06998-1.4591.3476.2745 1.1524h1.1846zm.646 0v1.5h1.1567l.294-1.1187zm14.2109-54.06998v-1.500004h-1.1567l-.294 1.118712zm15.3889 0 1.4512-.37959-.2931-1.120414h-1.1581zm14.1729 54.18398-1.4512.3796.2931 1.1204h1.1581zm.684 0v1.5h1.1852l.2741-1.1531zm12.881-54.18398v-1.500004h-1.1852l-.2741 1.153076zm17.9727 0 1.4421.41264.5473-1.912644h-1.9894zm-22.2664 77.81818v1.5h1.131l.3112-1.0874zm-16.0348 0-1.4401.4195.3147 1.0805h1.1254zm-14.8189-50.8782 1.4402-.4195-.3147-1.0805h-1.1255zm-.6079 0v-1.5h-1.1263l-.3142 1.0815zm-14.7809 50.8782v1.5h1.1262l.3142-1.0815zm-14.5927-.4126-22.2663-77.818224-2.8843.825284 22.26635 77.81814zm-23.7085-75.90558h17.9727v-3.000004h-17.9727zm16.51354-1.15239 12.88106 54.06997 2.9183-.6952-12.88103-54.07zm14.34016 55.22237h.646v-3h-.646zm2.0967-1.1187 14.211-54.07-2.9015-.762572-14.2109 54.069972zm12.7602-52.95128h15.3889v-3.000004h-15.3889zm13.9377-1.12042 14.1729 54.184 2.9024-.7592-14.1729-54.18397zm15.6241 55.3044h.684v-3h-.684zm2.1433-1.1531 12.881-54.18396-2.9186-.693848-12.8811 54.183908zm11.4217-53.03088h17.9727v-3.000004h-17.9727zm16.5305-1.912644-22.2663 77.818224 2.8843.8252 22.2663-77.81814zm-20.8242 76.730824h-16.0348v3h16.0348zm-14.5946 1.0805-14.8189-50.8782-2.8803.839 14.8189 50.8782zm-16.2591-51.9587h-.6079v3h.6079zm-2.0484 1.0815-14.7809 50.8782 2.8809.837 14.7809-50.8782zm-13.3404 49.7967h-16.03482v3h16.03482z" fill="#000" mask="url(#c)"/></g><path d="m8 1.5h64v-3h-64zm70.5 6.5v64h3v-64zm-6.5 70.5h-64v3h64zm-70.5-6.5v-64h-3v64zm6.5 6.5c-3.58985 0-6.5-2.9101-6.5-6.5h-3c0 5.2467 4.2533 9.5 9.5 9.5zm70.5-6.5c0 3.5899-2.9101 6.5-6.5 6.5v3c5.2467 0 9.5-4.2533 9.5-9.5zm-6.5-70.5c3.5899 0 6.5 2.91015 6.5 6.5h3c0-5.24671-4.2533-9.5-9.5-9.5zm-64-3c-5.24671 0-9.5 4.2533-9.5 9.5h3c0-3.58985 2.91015-6.5 6.5-6.5z" fill="#000" mask="url(#b)"/></svg>