<svg fill="none" height="80" viewBox="0 0 80 80" width="80" xmlns="http://www.w3.org/2000/svg" xmlns:xlink="http://www.w3.org/1999/xlink"><clipPath id="a"><path d="m0 8c0-4.41828 3.58172-8 8-8h64c4.4183 0 8 3.58172 8 8v64c0 4.4183-3.5817 8-8 8h-64c-4.41828 0-8-3.5817-8-8z"/></clipPath><mask id="b" fill="#fff"><path d="m0 8c0-4.41828 3.58172-8 8-8h64c4.4183 0 8 3.58172 8 8v64c0 4.4183-3.5817 8-8 8h-64c-4.41828 0-8-3.5817-8-8z" fill="#fff"/></mask><mask id="c" fill="#000" height="80" maskUnits="userSpaceOnUse" width="63" x="9" y="0"><path d="m9 0h63v80h-63z" fill="#fff"/><path d="m53.7707 24.1527c-.2898-2.9219-1.5334-5.1918-3.7308-6.8097-2.1975-1.6179-5.1797-2.4268-8.9468-2.4268-2.5596 0-4.7209.3622-6.4836 1.0866-1.7628.7003-3.1151 1.6783-4.0569 2.934-.9176 1.2557-1.3764 2.6804-1.3764 4.2741-.0483 1.3282.2294 2.4873.8331 3.4773.6279.9901 1.4851 1.8473 2.5718 2.5717 1.0866.7003 2.3423 1.3161 3.767 1.8473 1.4247.5071 2.946.9418 4.5639 1.304l6.6648 1.5938c3.2358.7244 6.206 1.6903 8.9105 2.8977 2.7046 1.2074 5.0469 2.6925 7.027 4.4553 1.9801 1.7627 3.5135 3.8394 4.6001 6.2301 1.1108 2.3906 1.6783 5.1314 1.7024 8.2223-.0241 4.5397-1.1832 8.4758-3.4772 11.8082-2.2699 3.3082-5.554 5.88-9.8523 7.7152-4.2741 1.8111-9.4297 2.7166-15.4666 2.7166-5.9887 0-11.2046-.9176-15.6477-2.7528-4.4191-1.8352-7.8722-4.5519-10.3594-8.1499-2.4631-3.6221-3.755-8.1015-3.8757-13.4382h15.1768c.1691 2.4872.8814 4.5639 2.1371 6.2301 1.2798 1.6421 2.9822 2.8857 5.1072 3.7309 2.1492.821 4.576 1.2315 7.2806 1.2315 2.6562 0 4.9623-.3864 6.9183-1.1591 1.9801-.7727 3.5135-1.8473 4.6001-3.2237 1.0867-1.3764 1.63-2.9581 1.63-4.7451 0-1.6661-.495-3.0667-1.4851-4.2017-.9659-1.1349-2.3906-2.1008-4.2741-2.8977-1.8594-.7969-4.1414-1.5213-6.8459-2.1733l-8.0774-2.0284c-6.2543-1.5213-11.1925-3.8998-14.8146-7.1356-3.6222-3.2358-5.4212-7.5945-5.3971-13.076-.0241-4.4915 1.1712-8.4155 3.586-11.7721 2.4389-3.35649 5.7834-5.97652 10.0334-7.86004s9.0795-2.82529 14.4886-2.82529c5.5057 0 10.3111.94177 14.4162 2.82529 4.1293 1.88352 7.3409 4.50355 9.6349 7.86004 2.2941 3.3566 3.4773 7.2444 3.5497 11.6634z" fill="#000"/></mask><g clip-path="url(#a)"><path d="m53.7707 24.1527c-.2898-2.9219-1.5334-5.1918-3.7308-6.8097-2.1975-1.6179-5.1797-2.4268-8.9468-2.4268-2.5596 0-4.7209.3622-6.4836 1.0866-1.7628.7003-3.1151 1.6783-4.0569 2.934-.9176 1.2557-1.3764 2.6804-1.3764 4.2741-.0483 1.3282.2294 2.4873.8331 3.4773.6279.9901 1.4851 1.8473 2.5718 2.5717 1.0866.7003 2.3423 1.3161 3.767 1.8473 1.4247.5071 2.946.9418 4.5639 1.304l6.6648 1.5938c3.2358.7244 6.206 1.6903 8.9105 2.8977 2.7046 1.2074 5.0469 2.6925 7.027 4.4553 1.9801 1.7627 3.5135 3.8394 4.6001 6.2301 1.1108 2.3906 1.6783 5.1314 1.7024 8.2223-.0241 4.5397-1.1832 8.4758-3.4772 11.8082-2.2699 3.3082-5.554 5.88-9.8523 7.7152-4.2741 1.8111-9.4297 2.7166-15.4666 2.7166-5.9887 0-11.2046-.9176-15.6477-2.7528-4.4191-1.8352-7.8722-4.5519-10.3594-8.1499-2.4631-3.6221-3.755-8.1015-3.8757-13.4382h15.1768c.1691 2.4872.8814 4.5639 2.1371 6.2301 1.2798 1.6421 2.9822 2.8857 5.1072 3.7309 2.1492.821 4.576 1.2315 7.2806 1.2315 2.6562 0 4.9623-.3864 6.9183-1.1591 1.9801-.7727 3.5135-1.8473 4.6001-3.2237 1.0867-1.3764 1.63-2.9581 1.63-4.7451 0-1.6661-.495-3.0667-1.4851-4.2017-.9659-1.1349-2.3906-2.1008-4.2741-2.8977-1.8594-.7969-4.1414-1.5213-6.8459-2.1733l-8.0774-2.0284c-6.2543-1.5213-11.1925-3.8998-14.8146-7.1356-3.6222-3.2358-5.4212-7.5945-5.3971-13.076-.0241-4.4915 1.1712-8.4155 3.586-11.7721 2.4389-3.35649 5.7834-5.97652 10.0334-7.86004s9.0795-2.82529 14.4886-2.82529c5.5057 0 10.3111.94177 14.4162 2.82529 4.1293 1.88352 7.3409 4.50355 9.6349 7.86004 2.2941 3.3566 3.4773 7.2444 3.5497 11.6634z" fill="#fc4c02"/><path d="m53.7707 24.1527-1.4927.148.1341 1.352h1.3586zm-19.1612-8.1499.5538 1.3941.0082-.0033.0081-.0034zm-4.0569 2.934-1.2-.9-.0055.0074-.0055.0076zm-1.3764 4.2741 1.499.0545.001-.0272v-.0273zm.8331 3.4773-1.2807.7809.0069.0113.0071.0111zm2.5718 2.5717-.8321 1.2481.0097.0065.0098.0063zm3.767 1.8473-.5241 1.4055.0105.0039.0106.0038zm4.5639 1.304.3489-1.4588-.0106-.0026-.0106-.0023zm6.6648 1.5938-.3489 1.4588.0106.0026.0106.0023zm8.9105 2.8977-.6115 1.3697zm7.027 4.4553.9974-1.1204zm4.6001 6.2301-1.3656.6207.0053.0113zm1.7024 8.2223 1.5.0079.0001-.0098-.0001-.0098zm-3.4772 11.8082-1.2356-.8505-.0013.0019zm-9.8523 7.7152.5852 1.3811.0038-.0016zm-31.1143-.0362-.5754 1.3853.0027.0011zm-10.3594-8.1499-1.2404.8435.0065.0095zm-3.8757-13.4382v-1.5h-1.53435l.03471 1.5339zm15.1768 0 1.4966-.1017-.0951-1.3983h-1.4015zm2.1371 6.2301-1.1979.9028.0073.0097.0075.0096zm5.1072 3.7309-.5543 1.3938.0095.0037.0095.0037zm14.1989.0724-.5453-1.3974-.0058.0023zm4.6001-3.2237 1.1774.9294zm.1449-8.9468-1.1423.9722.006.007.006.0069zm-4.2741-2.8977-.5909 1.3787.0064.0028zm-6.8459-2.1733-.3653 1.4548.0069.0018.0069.0016zm-8.0774-2.0284.3653-1.4549-.0108-.0026zm-14.8146-7.1356-.9994 1.1186zm-5.3971-13.076 1.5.0066.0001-.0074-.0001-.0073zm3.586-11.7721-1.2135-.8817-.0042.0058zm38.9382-7.86004-.6255 1.36335.003.00138zm9.6349 7.86004-1.2384.8464zm3.5497 11.6634v1.5h1.5248l-.025-1.5246zm-13.5392-.148c-.3282-3.3086-1.7664-5.979-4.3342-7.8696l-1.7787 2.4159c1.8271 1.3452 2.8761 3.2145 3.1275 5.7497zm-4.3342-7.8696c-2.5369-1.8678-5.8682-2.7189-9.8361-2.7189v3c3.5662 0 6.1994.7668 8.0574 2.1348zm-9.8361-2.7189c-2.692 0-5.0596.3797-7.0538 1.1992l1.1403 2.7748c1.5314-.6293 3.4862-.974 5.9135-.974zm-7.0374 1.1926c-1.9659.781-3.5639 1.9092-4.7031 3.428l2.4 1.8c.7444-.9925 1.8509-1.8203 3.4107-2.4399zm-4.7141 3.443c-1.1103 1.5193-1.6654 3.2557-1.6654 5.1591h3c0-1.284.3626-2.397 1.0875-3.3891zm-1.6644 5.1046c-.0574 1.5779.2732 3.0364 1.0514 4.3127l2.5614-1.5618c-.4291-.7038-.654-1.5634-.6148-2.6419zm1.0654 4.3351c.7522 1.1863 1.7653 2.1891 3.0064 3.0165l1.6641-2.4961c-.9322-.6215-1.6336-1.3331-2.137-2.127zm3.0259 3.0293c1.1915.7679 2.5469 1.4294 4.0555 1.9919l1.0482-2.8109c-1.3408-.5-2.4968-1.07-3.4786-1.7027zm4.0766 1.9996c1.4872.5293 3.0675.9803 4.7392 1.3546l.6554-2.9275c-1.5641-.3502-3.0264-.7686-4.3886-1.2534zm4.7181 1.3497 6.6647 1.5937.6978-2.9177-6.6648-1.5937zm6.6859 1.5986c3.1497.7052 6.0235 1.6415 8.6267 2.8037l1.223-2.7394c-2.8059-1.2526-5.8724-2.2481-9.1943-2.9918zm8.6267 2.8037c2.5802 1.1519 4.7887 2.5568 6.6411 4.2059l1.9948-2.2407c-2.1078-1.8765-4.584-3.4417-7.4129-4.7046zm6.6411 4.2059c1.8254 1.6251 3.2327 3.5321 4.232 5.7305l2.7311-1.2414c-1.1741-2.5829-2.8335-4.8293-4.9683-6.7298zm4.2372 5.7418c1.0062 2.1655 1.54 4.6888 1.5628 7.602l2.9999-.0234c-.0255-3.2687-.6266-6.2269-1.842-8.8427zm1.5628 7.5823c-.0228 4.2769-1.11 7.9109-3.2129 10.9657l2.4711 1.7011c2.4852-3.6101 3.7162-7.8482 3.7417-12.6509zm-3.2142 10.9676c-2.0836 3.0367-5.1241 5.4421-9.2044 7.1843l1.178 2.759c4.5163-1.9283 8.044-4.6663 10.5001-8.246zm-9.2006 7.1827c-4.0424 1.7129-8.9879 2.5977-14.8814 2.5977v3c6.1803 0 11.546-.9262 16.0518-2.8355zm-14.8814 2.5977c-5.8388 0-10.8522-.895-15.0751-2.6392l-1.1453 2.7728c4.6635 1.9262 10.0819 2.8664 16.2204 2.8664zm-15.0724-2.6381c-4.179-1.7355-7.3928-4.2787-9.7008-7.6175l-2.4678 1.7059c2.6664 3.8571 6.3588 6.7472 11.0179 8.6822zm-9.6943-7.608c-2.268-3.3353-3.5009-7.5176-3.6165-12.6287l-2.99924.0678c.12584 5.5622 1.47674 10.3387 4.13494 14.2478zm-5.1161-11.0948h15.1768v-3h-15.1768zm13.6803-1.3983c.1848 2.7202.9732 5.0906 2.4357 7.0312l2.3958-1.8055c-1.0489-1.3918-1.6852-3.1748-1.8384-5.4291zm2.4505 7.0505c1.4596 1.8727 3.3883 3.2688 5.736 4.2026l1.1087-2.7877c-1.9023-.7566-3.3785-1.8477-4.4785-3.2591zm5.755 4.21c2.3472.8967 4.9599 1.3303 7.8159 1.3303v-3c-2.5531 0-4.7942-.3874-6.7453-1.1328zm7.8159 1.3303c2.7972 0 5.2985-.4064 7.4694-1.264l-1.1022-2.7902c-1.7411.6878-3.852 1.0542-6.3672 1.0542zm7.4636-1.2617c2.176-.8492 3.9484-2.0655 5.2322-3.6917l-2.3547-1.8589c-.8895 1.1267-2.1839 2.0595-3.9681 2.7558zm5.2322-3.6917c1.2999-1.6465 1.9526-3.5572 1.9526-5.6745h-3c0 1.4566-.4339 2.7093-1.3073 3.8156zm1.9526-5.6745c0-1.9873-.6004-3.7499-1.8547-5.1877l-2.2607 1.9721c.7258.832 1.1154 1.8706 1.1154 3.2156zm-1.8428-5.1738c-1.163-1.3666-2.809-2.4512-4.832-3.307l-1.1689 2.7629c1.7441.7379 2.9476 1.5851 3.7163 2.4884zm-4.8255-3.3043c-1.9595-.8398-4.3269-1.5878-7.0853-2.2528l-.703 2.9164c2.6507.6391 4.8472 1.3398 6.6065 2.0938zm-7.0715-2.2494-8.0774-2.0284-.7307 2.9096 8.0775 2.0284zm-8.0882-2.0311c-6.0897-1.4813-10.7815-3.7699-14.1698-6.7968l-1.9987 2.2373c3.8561 3.4447 9.0407 5.9132 15.4595 7.4745zm-14.1698-6.7968c-3.2588-2.9111-4.9189-6.8372-4.8964-11.9507l-2.9999-.0132c-.0258 5.8495 1.9121 10.6408 5.8976 14.2012zm-4.8964-11.9654c-.0226-4.2032 1.0902-7.8113 3.3036-10.888l-2.4353-1.7519c-2.6161 3.6364-3.8939 7.8763-3.8682 12.656zm3.2995-10.8822c2.2655-3.118 5.3894-5.58081 9.4276-7.37048l-1.2155-2.74272c-4.4618 1.97738-8.0269 4.75463-10.6391 8.3497zm9.4276-7.37048c4.0299-1.78595 8.6472-2.69665 13.8809-2.69665v-2.999996c-5.5845 0-10.6262.972826-15.0964 2.953926zm13.8809-2.69665c5.3361 0 9.9199.91265 13.7907 2.68863l1.251-2.72668c-4.3395-1.99106-9.3664-2.961946-15.0417-2.961946zm13.7937 2.69002c3.9103 1.78364 6.8967 4.23641 9.019 7.34171l2.4768-1.6927c-2.4657-3.60776-5.9026-6.39506-10.2508-8.37847zm9.019 7.34171c2.1139 3.093 3.2203 6.6895 3.2883 10.8416l2.9996-.0492c-.0768-4.6859-1.3369-8.865-3.8111-12.4851zm4.7881 9.317h-15.0319v3h15.0319z" fill="#000" mask="url(#c)"/></g><path d="m8 1.5h64v-3h-64zm70.5 6.5v64h3v-64zm-6.5 70.5h-64v3h64zm-70.5-6.5v-64h-3v64zm6.5 6.5c-3.58985 0-6.5-2.9101-6.5-6.5h-3c0 5.2467 4.2533 9.5 9.5 9.5zm70.5-6.5c0 3.5899-2.9101 6.5-6.5 6.5v3c5.2467 0 9.5-4.2533 9.5-9.5zm-6.5-70.5c3.5899 0 6.5 2.91015 6.5 6.5h3c0-5.24671-4.2533-9.5-9.5-9.5zm-64-3c-5.24671 0-9.5 4.2533-9.5 9.5h3c0-3.58985 2.91015-6.5 6.5-6.5z" fill="#000" mask="url(#b)"/></svg>