<svg fill="none" height="80" viewBox="0 0 80 80" width="80" xmlns="http://www.w3.org/2000/svg" xmlns:xlink="http://www.w3.org/1999/xlink"><clipPath id="a"><path d="m0 8c0-4.41828 3.58172-8 8-8h64c4.4183 0 8 3.58172 8 8v64c0 4.4183-3.5817 8-8 8h-64c-4.41828 0-8-3.5817-8-8z"/></clipPath><mask id="b" fill="#fff"><path d="m0 8c0-4.41828 3.58172-8 8-8h64c4.4183 0 8 3.58172 8 8v64c0 4.4183-3.5817 8-8 8h-64c-4.41828 0-8-3.5817-8-8z" fill="#fff"/></mask><g clip-path="url(#a)"><path clip-rule="evenodd" d="m19.0216 79.5919 5.996-18.3674h29.1528l5.996 18.3674h18.815l-27.9123-79.387798h-22.7434l-27.705583 79.387798zm10.3379-31.4287h20.6758l-9.7176-30.4081h-1.0338z" fill="#fc4c02" fill-rule="evenodd"/><path d="m25.0176 61.2245v-.75h-.5442l-.1688.5173zm-5.996 18.3674v.75h.5441l.1688-.5173zm35.1488-18.3674.713-.2327-.1689-.5173h-.5441zm5.996 18.3674-.713.2327.1689.5173h.5441zm18.815 0v.75h1.0587l-.3512-.9988zm-27.9123-79.387798.7075-.2487682-.1762-.5012318h-.5313zm-22.7434 0v-.75h-.5326l-.1755.5028738zm-27.705583 79.387798-.7081162-.2471-.3479868.9971h1.056103zm49.415183-31.4287v.75h1.0271l-.3127-.9783zm-20.6758 0-.713-.2327-.3207.9827h1.0337zm10.9582-30.4081.7144-.2283-.1667-.5217h-.5477zm-1.0338 0v-.75h-.5442l-.1688.5173zm-14.9793 43.2367-5.996 18.3674 1.4259.4654 5.996-18.3673zm29.8658-.5173h-29.1528v1.5h29.1528zm6.709 18.8847-5.996-18.3674-1.4259.4655 5.9959 18.3673zm18.102-.5173h-18.815v1.5h18.815zm-28.6199-78.389031 27.9123 79.387831 1.4151-.4976-27.9123-79.3877662zm-22.0358.501233h22.7434v-1.5h-22.7434zm-26.99747 78.884898 27.70557-79.387773-1.4162-.4942512-27.7055992 79.3878242zm17.69337-.9971h-18.401483v1.5h18.401483zm31.0137-31.4287h-20.6758v1.5h20.6758zm-10.432-29.4298 9.7176 30.4082 1.4288-.4567-9.7176-30.4081zm-.3194.5217h1.0338v-1.5h-1.0338zm-9.2114 29.8908 9.9244-30.4081-1.426-.4654-9.9244 30.4081z" fill="#000"/></g><path d="m8 1.5h64v-3h-64zm70.5 6.5v64h3v-64zm-6.5 70.5h-64v3h64zm-70.5-6.5v-64h-3v64zm6.5 6.5c-3.58985 0-6.5-2.9101-6.5-6.5h-3c0 5.2467 4.2533 9.5 9.5 9.5zm70.5-6.5c0 3.5899-2.9101 6.5-6.5 6.5v3c5.2467 0 9.5-4.2533 9.5-9.5zm-6.5-70.5c3.5899 0 6.5 2.91015 6.5 6.5h3c0-5.24671-4.2533-9.5-9.5-9.5zm-64-3c-5.24671 0-9.5 4.2533-9.5 9.5h3c0-3.58985 2.91015-6.5 6.5-6.5z" fill="#000" mask="url(#b)"/></svg>