<svg fill="none" height="80" viewBox="0 0 80 80" width="80" xmlns="http://www.w3.org/2000/svg" xmlns:xlink="http://www.w3.org/1999/xlink"><clipPath id="a"><path d="m0 8c0-4.41828 3.58172-8 8-8h64c4.4183 0 8 3.58172 8 8v64c0 4.4183-3.5817 8-8 8h-64c-4.41828 0-8-3.5817-8-8z"/></clipPath><mask id="b" fill="#fff"><path d="m0 8c0-4.41828 3.58172-8 8-8h64c4.4183 0 8 3.58172 8 8v64c0 4.4183-3.5817 8-8 8h-64c-4.41828 0-8-3.5817-8-8z" fill="#fff"/></mask><mask id="c" fill="#000" height="82" maskUnits="userSpaceOnUse" width="72" x="4" y="-1"><path d="m4-1h72v82h-72z" fill="#fff"/><path d="m41.2017 79 12.767-77.81818h12.1591l-12.767 77.81818zm-34.84343-19.3026 2.01384-12.159h60.79549l-2.0139 12.159zm7.48543 19.3026 12.7671-77.81818h12.159l-12.767 77.81818zm-3.0398-46.3565 2.0519-12.1591h60.7954l-2.0518 12.1591z" fill="#000"/></mask><g clip-path="url(#a)"><path d="m41.2017 79 12.767-77.81818h12.1591l-12.767 77.81818zm-34.84343-19.3026 2.01384-12.159h60.79549l-2.0139 12.159zm7.48543 19.3026 12.7671-77.81818h12.159l-12.767 77.81818zm-3.0398-46.3565 2.0519-12.1591h60.7954l-2.0518 12.1591z" fill="#fc4c02"/><path d="m41.2017 79-1.4802-.2428-.286 1.7428h1.7662zm12.767-77.81818v-1.500004h-1.274l-.2062 1.257153zm12.1591 0 1.4802.24284.2859-1.742844h-1.7661zm-12.767 77.81818v1.5h1.2739l.2063-1.2572zm-47.00253-19.3026-1.47984-.2451-.28904 1.7451h1.76888zm2.01384-12.159v-1.5h-1.27199l-.20785 1.2549zm60.79549 0 1.4798.2451.289-1.7451h-1.7688zm-2.0139 12.159v1.5h1.272l.2079-1.2549zm-53.31 19.3026-1.4802-.2428-.2859 1.7428h1.7661zm12.7671-77.81818v-1.500004h-1.274l-.2063 1.257153zm12.159 0 1.4803.24284.2859-1.742844h-1.7662zm-12.767 77.81818v1.5h1.274l.2062-1.2572zm-15.1989-46.3565-1.47906-.2496-.29524 1.7496h1.7743zm2.0519-12.1591v-1.5h-1.2681l-.211 1.2504zm60.7954 0 1.4791.2496.2953-1.7496h-1.7744zm-2.0518 12.1591v1.5h1.2681l.211-1.2504zm-28.9175 46.5993 12.767-77.81814-2.9604-.485691-12.767 77.818231zm11.2868-76.56098h12.1591v-3.000004h-12.1591zm10.6789-1.742851-12.7671 77.818231 2.9605.4856 12.767-77.81814zm-11.2868 76.561031h-12.1591v3h12.1591zm-45.52269-17.5575 2.01384-12.159-2.95968-.4902-2.01384 12.159zm.534-10.9041h60.79549v-3h-60.79549zm59.31559-1.7451-2.0138 12.159 2.9597.4902 2.0138-12.159zm-.534 10.9041h-60.79543v3h60.79543zm-51.8298 21.0454 12.7671-77.81814-2.9605-.485691-12.767 77.818231zm11.2869-76.56098h12.159v-3.000004h-12.159zm10.6788-1.742851-12.767 77.818231 2.9604.4856 12.7671-77.81814zm-11.2868 76.561031h-12.1591v3h12.1591zm-13.7198-44.6069 2.0519-12.1591-2.9582-.4992-2.05186 12.1591zm.5728-10.9087h60.7954v-3h-60.7954zm59.3163-1.7496-2.0518 12.1591 2.9582.4992 2.0518-12.1591zm-.5727 10.9087h-60.7955v3h60.7955z" fill="#000" mask="url(#c)"/></g><path d="m8 1.5h64v-3h-64zm70.5 6.5v64h3v-64zm-6.5 70.5h-64v3h64zm-70.5-6.5v-64h-3v64zm6.5 6.5c-3.58985 0-6.5-2.9101-6.5-6.5h-3c0 5.2467 4.2533 9.5 9.5 9.5zm70.5-6.5c0 3.5899-2.9101 6.5-6.5 6.5v3c5.2467 0 9.5-4.2533 9.5-9.5zm-6.5-70.5c3.5899 0 6.5 2.91015 6.5 6.5h3c0-5.24671-4.2533-9.5-9.5-9.5zm-64-3c-5.24671 0-9.5 4.2533-9.5 9.5h3c0-3.58985 2.91015-6.5 6.5-6.5z" fill="#000" mask="url(#b)"/></svg>