<svg fill="none" height="80" viewBox="0 0 80 80" width="80" xmlns="http://www.w3.org/2000/svg" xmlns:xlink="http://www.w3.org/1999/xlink"><clipPath id="a"><path d="m0 8c0-4.41828 3.58172-8 8-8h64c4.4183 0 8 3.58172 8 8v64c0 4.4183-3.5817 8-8 8h-64c-4.41828 0-8-3.5817-8-8z"/></clipPath><mask id="b" fill="#fff"><path d="m0 8c0-4.41828 3.58172-8 8-8h64c4.4183 0 8 3.58172 8 8v64c0 4.4183-3.5817 8-8 8h-64c-4.41828 0-8-3.5817-8-8z" fill="#fff"/></mask><mask id="c" fill="#000" height="82" maskUnits="userSpaceOnUse" width="69" x="6" y="-1"><path d="m6-1h69v82h-69z" fill="#fff"/><path d="m73.0113 1.18182v77.81818h-14.2109l-33.8555-48.9783h-.5699v48.9783h-16.45281v-77.81818h14.43891l33.5895 48.94038h.6839v-48.94038z" fill="#000"/></mask><g clip-path="url(#a)"><path d="m73.0113 1.18182v77.81818h-14.2109l-33.8555-48.9783h-.5699v48.9783h-16.45281v-77.81818h14.43891l33.5895 48.94038h.6839v-48.94038z" fill="#fc4c02"/><path d="m73.0113 1.18182h1.5v-1.500004h-1.5zm0 77.81818v1.5h1.5v-1.5zm-14.2109 0-1.2339.8529.4473.6471h.7866zm-33.8555-48.9783 1.2339-.853-.4473-.647h-.7866zm-.5699 0v-1.5h-1.5v1.5zm0 48.9783v1.5h1.5v-1.5zm-16.45281 0h-1.5v1.5h1.5zm0-77.81818v-1.500004h-1.5v1.500004zm14.43891 0 1.2367-.848819-.4469-.651185h-.7898zm33.5895 48.94038-1.2367.8488.4469.6512h.7898zm.6839 0v1.5h1.5v-1.5zm0-48.94038v-1.500004h-1.5v1.500004zm14.8768 0v77.81818h3v-77.81818zm1.5 76.31818h-14.2109v3h14.2109zm-12.977.6471-33.8555-48.9784-2.4678 1.7059 33.8555 48.9783zm-35.0894-49.6254h-.5699v3h.5699zm-2.0699 1.5v48.9783h3v-48.9783zm1.5 47.4783h-16.45281v3h16.45281zm-14.95281 1.5v-77.81818h-3v77.81818zm-1.5-76.31818h14.43891v-3.000004h-14.43891zm13.20221-.65119 33.5895 48.94037 2.4734-1.6977-33.5895-48.940299zm34.8262 49.59157h.6839v-3h-.6839zm2.1839-1.5v-48.94038h-3v48.94038zm-1.5-47.44038h16.3768v-3.000004h-16.3768z" fill="#000" mask="url(#c)"/></g><path d="m8 1.5h64v-3h-64zm70.5 6.5v64h3v-64zm-6.5 70.5h-64v3h64zm-70.5-6.5v-64h-3v64zm6.5 6.5c-3.58985 0-6.5-2.9101-6.5-6.5h-3c0 5.2467 4.2533 9.5 9.5 9.5zm70.5-6.5c0 3.5899-2.9101 6.5-6.5 6.5v3c5.2467 0 9.5-4.2533 9.5-9.5zm-6.5-70.5c3.5899 0 6.5 2.91015 6.5 6.5h3c0-5.24671-4.2533-9.5-9.5-9.5zm-64-3c-5.24671 0-9.5 4.2533-9.5 9.5h3c0-3.58985 2.91015-6.5 6.5-6.5z" fill="#000" mask="url(#b)"/></svg>