<svg fill="none" height="80" viewBox="0 0 80 80" width="80" xmlns="http://www.w3.org/2000/svg" xmlns:xlink="http://www.w3.org/1999/xlink"><clipPath id="a"><path d="m0 8c0-4.41828 3.58172-8 8-8h64c4.4183 0 8 3.58172 8 8v64c0 4.4183-3.5817 8-8 8h-64c-4.41828 0-8-3.5817-8-8z"/></clipPath><mask id="b" fill="#fff"><path d="m0 8c0-4.41828 3.58172-8 8-8h64c4.4183 0 8 3.58172 8 8v64c0 4.4183-3.5817 8-8 8h-64c-4.41828 0-8-3.5817-8-8z" fill="#fff"/></mask><mask id="c" fill="#000" height="82" maskUnits="userSpaceOnUse" width="70" x="5" y="-1"><path d="m5-1h70v82h-70z" fill="#fff"/><path d="m6.76349 79v-77.81818h16.45281v32.10758h33.3995v-32.10758h16.4147v77.81818h-16.4147v-32.1456h-33.3995v32.1456z" fill="#000"/></mask><g clip-path="url(#a)"><path d="m6.76349 79v-77.81818h16.45281v32.10758h33.3995v-32.10758h16.4147v77.81818h-16.4147v-32.1456h-33.3995v32.1456z" fill="#fc4c02"/><path d="m6.76349 79h-1.5v1.5h1.5zm0-77.81818v-1.500004h-1.5v1.500004zm16.45281 0h1.5v-1.500004h-1.5zm0 32.10758h-1.5v1.5h1.5zm33.3995 0v1.5h1.5v-1.5zm0-32.10758v-1.500004h-1.5v1.500004zm16.4147 0h1.5v-1.500004h-1.5zm0 77.81818v1.5h1.5v-1.5zm-16.4147 0h-1.5v1.5h1.5zm0-32.1456h1.5v-1.5h-1.5zm-33.3995 0v-1.5h-1.5v1.5zm0 32.1456v1.5h1.5v-1.5zm-14.95281 0v-77.81818h-3v77.81818zm-1.5-76.31818h16.45281v-3.000004h-16.45281zm14.95281-1.5v32.10758h3v-32.10758zm1.5 33.60758h33.3995v-3h-33.3995zm34.8995-1.5v-32.10758h-3v32.10758zm-1.5-30.60758h16.4147v-3.000004h-16.4147zm14.9147-1.5v77.81818h3v-77.81818zm1.5 76.31818h-16.4147v3h16.4147zm-14.9147 1.5v-32.1456h-3v32.1456zm-1.5-33.6456h-33.3995v3h33.3995zm-34.8995 1.5v32.1456h3v-32.1456zm1.5 30.6456h-16.45281v3h16.45281z" fill="#000" mask="url(#c)"/></g><path d="m8 1.5h64v-3h-64zm70.5 6.5v64h3v-64zm-6.5 70.5h-64v3h64zm-70.5-6.5v-64h-3v64zm6.5 6.5c-3.58985 0-6.5-2.9101-6.5-6.5h-3c0 5.2467 4.2533 9.5 9.5 9.5zm70.5-6.5c0 3.5899-2.9101 6.5-6.5 6.5v3c5.2467 0 9.5-4.2533 9.5-9.5zm-6.5-70.5c3.5899 0 6.5 2.91015 6.5 6.5h3c0-5.24671-4.2533-9.5-9.5-9.5zm-64-3c-5.24671 0-9.5 4.2533-9.5 9.5h3c0-3.58985 2.91015-6.5 6.5-6.5z" fill="#000" mask="url(#b)"/></svg>