<svg fill="none" height="80" viewBox="0 0 80 80" width="80" xmlns="http://www.w3.org/2000/svg" xmlns:xlink="http://www.w3.org/1999/xlink"><clipPath id="a"><path d="m0 8c0-4.41828 3.58172-8 8-8h64c4.4183 0 8 3.58172 8 8v64c0 4.4183-3.5817 8-8 8h-64c-4.41828 0-8-3.5817-8-8z"/></clipPath><mask id="b" fill="#fff"><path d="m0 8c0-4.41828 3.58172-8 8-8h64c4.4183 0 8 3.58172 8 8v64c0 4.4183-3.5817 8-8 8h-64c-4.41828 0-8-3.5817-8-8z" fill="#fff"/></mask><mask id="c" fill="#000" height="82" maskUnits="userSpaceOnUse" width="64" x="8" y="-1"><path d="m8-1h64v82h-64z" fill="#fff"/><path d="m10.2435 79v-9.7653l38.8331-54.4879h-38.9091v-13.56498h59.5795v9.76528l-38.8711 54.4879h38.9471v13.565z" fill="#000"/></mask><g clip-path="url(#a)"><path d="m10.2435 79v-9.7653l38.8331-54.4879h-38.9091v-13.56498h59.5795v9.76528l-38.8711 54.4879h38.9471v13.565z" fill="#fc4c02"/><path d="m10.2435 79h-1.50003v1.5h1.50003zm0-9.7653-1.22155-.8705-.27848.3907v.4798zm38.8331-54.4879 1.2215.8706 1.6895-2.3706h-2.911zm-38.9091 0h-1.50002v1.5h1.50002zm0-13.56498v-1.500004h-1.50002v1.500004zm59.5795 0h1.5v-1.500004h-1.5zm0 9.76528 1.2211.8711.2789-.3909v-.4802zm-38.8711 54.4879-1.2211-.8711-1.6915 2.3711h2.9126zm38.9471 0h1.5v-1.5h-1.5zm0 13.565v1.5h1.5v-1.5zm-58.0795 0v-9.7653h-3.00003v9.7653zm-.2785-8.8947 38.8331-54.4879-2.443-1.7412-38.83315 54.488zm37.6116-56.8585h-38.9091v3h38.9091zm-37.4091 1.5v-13.56498h-3.00002v13.56498zm-1.5-12.06498h59.5795v-3.000004h-59.5795zm58.0795-1.5v9.76528h3v-9.76528zm.2789 8.89418-38.8711 54.4879 2.4422 1.7422 38.8711-54.4879zm-37.65 56.859h38.9471v-3h-38.9471zm37.4471-1.5v13.565h3v-13.565zm1.5 12.065h-59.5795v3h59.5795z" fill="#000" mask="url(#c)"/></g><path d="m8 1.5h64v-3h-64zm70.5 6.5v64h3v-64zm-6.5 70.5h-64v3h64zm-70.5-6.5v-64h-3v64zm6.5 6.5c-3.58985 0-6.5-2.9101-6.5-6.5h-3c0 5.2467 4.2533 9.5 9.5 9.5zm70.5-6.5c0 3.5899-2.9101 6.5-6.5 6.5v3c5.2467 0 9.5-4.2533 9.5-9.5zm-6.5-70.5c3.5899 0 6.5 2.91015 6.5 6.5h3c0-5.24671-4.2533-9.5-9.5-9.5zm-64-3c-5.24671 0-9.5 4.2533-9.5 9.5h3c0-3.58985 2.91015-6.5 6.5-6.5z" fill="#000" mask="url(#b)"/></svg>