<svg fill="none" height="80" viewBox="0 0 80 80" width="80" xmlns="http://www.w3.org/2000/svg" xmlns:xlink="http://www.w3.org/1999/xlink"><clipPath id="a"><path d="m0 8c0-4.41828 3.58172-8 8-8h64c4.4183 0 8 3.58172 8 8v64c0 4.4183-3.5817 8-8 8h-64c-4.41828 0-8-3.5817-8-8z"/></clipPath><mask id="b" height="80" maskUnits="userSpaceOnUse" width="80" x="0" y="0"><path d="m0 8c0-4.41828 3.58172-8 8-8h64c4.4183 0 8 3.58172 8 8v64c0 4.4183-3.5817 8-8 8h-64c-4.41828 0-8-3.5817-8-8z" fill="#fff"/></mask><mask id="c" height="80" maskUnits="userSpaceOnUse" width="80" x="0" y="0"><path d="m0 8c0-4.41828 3.58172-8 8-8h64c4.4183 0 8 3.58172 8 8v64c0 4.4183-3.5817 8-8 8h-64c-4.41828 0-8-3.5817-8-8z" fill="#fff"/></mask><g clip-path="url(#a)"><g mask="url(#b)"><g mask="url(#c)"><path d="m8 1.5h64v-3h-64zm70.5 6.5v64h3v-64zm-6.5 70.5h-64v3h64zm-70.5-6.5v-64h-3v64zm6.5 6.5c-3.58985 0-6.5-2.9101-6.5-6.5h-3c0 5.2467 4.2533 9.5 9.5 9.5zm70.5-6.5c0 3.5899-2.9101 6.5-6.5 6.5v3c5.2467 0 9.5-4.2533 9.5-9.5zm-6.5-70.5c3.5899 0 6.5 2.91015 6.5 6.5h3c0-5.24671-4.2533-9.5-9.5-9.5zm-64-3c-5.24671 0-9.5 4.2533-9.5 9.5h3c0-3.58985 2.91015-6.5 6.5-6.5z" fill="#000"/></g><path d="m74.3095 28.8438h-16.1762c-.2954-2.0929-.8987-3.9518-1.8096-5.5768-.911-1.6496-2.0805-3.053-3.5086-4.2102-1.428-1.1572-3.0776-2.0435-4.9488-2.6591-1.8466-.6155-3.8532-.9233-6.0199-.9233-3.9148 0-7.3248.9726-10.2301 2.9176-2.9053 1.9205-5.1582 4.7273-6.7585 8.4205-1.6004 3.6686-2.4006 8.125-2.4006 13.3693 0 5.3921.8002 9.9224 2.4006 13.5909 1.625 3.6686 3.8901 6.4385 6.7954 8.3097s6.2661 2.8068 10.0824 2.8068c2.142 0 4.1241-.2831 5.946-.8494 1.8466-.5663 3.4839-1.3911 4.912-2.4745 1.428-1.1079 2.6098-2.4498 3.5454-4.0255.9602-1.5758 1.625-3.3731 1.9943-5.3921l16.1762.0739c-.4186 3.4716-1.465 6.8201-3.1392 10.0454-1.6497 3.2008-3.8779 6.0692-6.6847 8.6052-2.7822 2.5113-6.1061 4.5056-9.9716 5.9829-3.8409 1.4527-8.1865 2.179-13.0369 2.179-6.7462 0-12.7784-1.5265-18.0966-4.5796-5.2936-3.053-9.4792-7.4725-12.5568-13.2585-3.05305-5.786-4.57956-12.7907-4.57956-21.0142 0-8.2481 1.55113-15.2651 4.65336-21.0511 3.1023-5.786 7.3125-10.19321 12.6307-13.22162 5.3182-3.05303 11.3011-4.57955 17.9489-4.57955 4.3825 0 8.445.61553 12.1875 1.84659 3.767 1.23107 7.1032 3.02841 10.0085 5.39205 2.9053 2.33903 5.2689 5.20743 7.0909 8.60513 1.8466 3.3977 3.0284 7.2879 3.5455 11.6705z" fill="#ff480c"/><path d="m74.3095 28.8438v.75h.8436l-.0988-.8379zm-16.1762 0-.7426.1048.0911.6452h.6515zm-1.8096-5.5768-.6566.3626.0024.0042zm-8.4574-6.8693-.2372.7115.0028.001zm-16.25 1.9943.4136.6257.0036-.0024zm-6.7585 8.4205.6874.2999.0007-.0017zm0 26.9602-.6875.2999.0017.0039zm22.8238 10.2671-.2199-.7171-.0027.0009zm4.912-2.4745.4533.5976.0064-.005zm3.5454-4.0255-.6405-.3903-.0044.0074zm1.9943-5.3921.0034-.75-.6281-.0028-.113.6179zm16.1762.0739.7446.0898.1008-.836-.842-.0038zm-3.1392 10.0454-.6657-.3455-.001.002zm-16.6563 14.5881.2653.7015.0024-.0009zm-31.1335-2.4006-.3747.6497.0013.0008zm-12.5568-13.2585-.6634.35.0012.0022zm12.7045-55.28692.3711.65174.0023-.0013zm30.1364-2.73296-.2344.71245.0014.00045zm10.0085 5.39205-.4733.58179.003.00241zm7.0909 8.60513-.661.3544.002.0037zm3.5455 10.9205h-16.1762v1.5h16.1762zm-15.4335.6451c-.3068-2.1725-.936-4.1224-1.8981-5.8386l-1.3084.7335c.8598 1.5338 1.437 3.3017 1.7212 5.3148zm-1.8958-5.8344c-.9565-1.732-2.1879-3.2108-3.6929-4.4304l-.9443 1.1654c1.351 1.0948 2.4586 2.4229 3.3241 3.9901zm-3.6929-4.4304c-1.5037-1.2185-3.2352-2.1469-5.1867-2.7888l-.4687 1.4249c1.791.5891 3.3587 1.4334 4.7111 2.5293zm-5.1839-2.7879c-1.9311-.6437-4.0188-.9618-6.257-.9618v1.5c2.0951 0 4.0207.2975 5.7827.8848zm-6.257-.9618c-4.0449 0-7.6041 1.007-10.6474 3.0444l.8345 1.2465c2.7674-1.8528 6.0283-2.7909 9.8129-2.7909zm-10.6437 3.042c-3.0447 2.0126-5.3841 4.9425-7.0331 8.7479l1.3763.5964c1.5518-3.581 3.718-6.2647 6.484-8.093zm-7.0324 8.7462c-1.6523 3.7876-2.4631 8.3522-2.4631 13.6692h1.5c0-5.1716.7896-9.5199 2.338-13.0694zm-2.4631 13.6692c0 5.4614.8098 10.1009 2.4631 13.8908l1.3749-.5998c-1.5475-3.5472-2.338-7.9683-2.338-13.291zm2.4648 13.8947c1.6745 3.7803 4.0278 6.6738 7.0751 8.6364l.8122-1.261c-2.7633-1.7798-4.9403-4.4262-6.5158-7.9829zm7.0751 8.6364c3.0389 1.9573 6.5438 2.9263 10.4885 2.9263v-1.5c-3.6878 0-6.9045-.9022-9.6763-2.6873zm10.4885 2.9263c2.2084 0 4.2663-.292 6.1686-.8832l-.4452-1.4324c-1.7416.5413-3.6477.8156-5.7234.8156zm6.1659-.8824c1.9243-.5901 3.642-1.4534 5.1454-2.5939l-.9066-1.1951c-1.3526 1.0261-2.9096 1.8125-4.6786 2.3549zm5.1518-2.5989c1.5034-1.1664 2.7477-2.5797 3.7306-4.2352l-1.2898-.7658c-.8883 1.496-2.0076 2.7664-3.3603 3.8159zm3.7262-4.2278c1.0131-1.6626 1.7076-3.5482 2.0916-5.6474l-1.4755-.2699c-.3547 1.9387-.9898 3.6477-1.8971 5.1367zm1.3504-5.0324 16.1761.0739.0069-1.5-16.1762-.0739zm15.4349-.7659c-.4073 3.3788-1.4257 6.641-3.0602 9.7897l1.3313.6911c1.714-3.302 2.7884-6.7369 3.2182-10.3012zm-3.0612 9.7917c-1.6062 3.1165-3.7776 5.9136-6.5208 8.3922l1.0053 1.1132c2.8704-2.5935 5.1558-5.5332 6.8488-8.8183zm-6.5208 8.3922c-2.7067 2.4432-5.9485 4.3912-9.7365 5.8388l.5354 1.4012c3.9431-1.5069 7.3487-3.5473 10.2064-6.1268zm-9.7341 5.8379c-3.7423 1.4154-7.9958 2.1305-12.7716 2.1305v1.5c4.9249 0 9.3627-.7375 13.3022-2.2275zm-12.7716 2.1305c-6.6287 0-12.5298-1.4986-17.7232-4.48l-.7468 1.3009c5.4429 3.1246 11.6062 4.6791 18.47 4.6791zm-17.7219-4.4792c-5.1629-2.9777-9.2528-7.2899-12.2694-12.9611l-1.3243.7044c3.1387 5.9008 7.42 10.4276 12.8443 13.556zm-12.2682-12.9589c-2.98332-5.6539-4.49286-12.532-4.49286-20.6642h-1.5c0 8.3148 1.54348 15.4461 4.66616 21.3642zm-4.49286-20.6642c0-8.1555 1.53366-15.0442 4.56436-20.6967l-1.322-.7088c-3.17375 5.9194-4.74236 13.0648-4.74236 21.4055zm4.56436-20.6967c3.0406-5.671 7.1543-9.97085 12.3408-12.92428l-.7422-1.30348c-5.4499 3.10338-9.7566 7.61796-12.9206 13.51896zm12.3431-12.92558c5.1951-2.98237 11.0474-4.47999 17.5755-4.47999v-1.500001c-6.7674 0-12.881 1.555421-18.3223 4.679111zm17.5755-4.47999c4.3118 0 8.2943.60548 11.9531 1.80904l.4687-1.42489c-3.826-1.25857-7.9685-1.884151-12.4218-1.884151zm11.9545 1.80949c3.6847 1.20416 6.9383 2.9587 9.7682 5.26094l.9466-1.16358c-2.9808-2.42503-6.3995-4.26519-10.2489-5.52315zm9.7712 5.26335c2.8243 2.27383 5.1241 5.06313 6.9002 8.37533l1.322-.7088c-1.8679-3.4833-4.2953-6.4307-7.2816-8.83493zm6.9022 8.37903c1.7951 3.303 2.9522 7.0991 3.4596 11.4002l1.4897-.1757c-.5267-4.4641-1.7332-8.4482-3.6313-11.9407z" fill="#000"/></g></g></svg>