<svg fill="none" height="80" viewBox="0 0 80 80" width="80" xmlns="http://www.w3.org/2000/svg" xmlns:xlink="http://www.w3.org/1999/xlink"><clipPath id="a"><path d="m0 8c0-4.41828 3.58172-8 8-8h64c4.4183 0 8 3.58172 8 8v64c0 4.4183-3.5817 8-8 8h-64c-4.41828 0-8-3.5817-8-8z"/></clipPath><mask id="b" fill="#fff"><path d="m0 8c0-4.41828 3.58172-8 8-8h64c4.4183 0 8 3.58172 8 8v64c0 4.4183-3.5817 8-8 8h-64c-4.41828 0-8-3.5817-8-8z" fill="#fff"/></mask><mask id="c" fill="#000" height="81" maskUnits="userSpaceOnUse" width="66" x="7" y="-1"><path d="m7-1h66v81h-66z" fill="#fff"/><path d="m55.359 1.36363h15.9915v49.11937c0 5.5151-1.3172 10.3409-3.9517 14.4772-2.6099 4.1364-6.2661 7.3618-10.9688 9.6762-4.7026 2.2897-10.1808 3.4346-16.4346 3.4346-6.2784 0-11.769-1.1449-16.4716-3.4346-4.7027-2.3144-8.3589-5.5398-10.9688-9.6762-2.60981-4.1363-3.91473-8.9621-3.91473-14.4772v-49.11937h15.99143v47.75287c0 2.8807.6279 5.4413 1.8836 7.6818 1.2803 2.2405 3.0776 4.0009 5.392 5.2812s5.0104 1.9205 8.0881 1.9205c3.1023 0 5.7983-.6402 8.0881-1.9205 2.3143-1.2803 4.0994-3.0407 5.3551-5.2812 1.2803-2.2405 1.9204-4.8011 1.9204-7.6818z" fill="#000"/></mask><g clip-path="url(#a)"><path d="m55.359 1.36363h15.9915v49.11937c0 5.5151-1.3172 10.3409-3.9517 14.4772-2.6099 4.1364-6.2661 7.3618-10.9688 9.6762-4.7026 2.2897-10.1808 3.4346-16.4346 3.4346-6.2784 0-11.769-1.1449-16.4716-3.4346-4.7027-2.3144-8.3589-5.5398-10.9688-9.6762-2.60981-4.1363-3.91473-8.9621-3.91473-14.4772v-49.11937h15.99143v47.75287c0 2.8807.6279 5.4413 1.8836 7.6818 1.2803 2.2405 3.0776 4.0009 5.392 5.2812s5.0104 1.9205 8.0881 1.9205c3.1023 0 5.7983-.6402 8.0881-1.9205 2.3143-1.2803 4.0994-3.0407 5.3551-5.2812 1.2803-2.2405 1.9204-4.8011 1.9204-7.6818z" fill="#fc4c02"/><path d="m55.359 1.36363v-1.499996h-1.5v1.499996zm15.9915 0h1.5v-1.499996h-1.5zm-3.9517 63.59657-1.2652-.8058-.0034.0054zm-10.9688 9.6762.6567 1.3486.0057-.0028zm-32.9062 0-.6624 1.3458.0057.0028zm-10.9688-9.6762-1.2685.8005zm-3.91473-63.59657v-1.499996h-1.5v1.499996zm15.99143 0h1.5v-1.499996h-1.5zm1.8836 55.43467-1.3086.7334.0062.0108zm5.392 5.2812-.7261 1.3126zm16.1762 0-.7261-1.3125-.006.0033zm5.3551-5.2812-1.3024-.7442-.0061.0108zm1.9204-53.93467h15.9915v-2.999996h-15.9915zm14.4915-1.5v49.11937h3v-49.11937zm0 49.11937c0 5.2663-1.2543 9.805-3.7169 13.6714l2.5304 1.6116c2.8064-4.4063 4.1865-9.5191 4.1865-15.283zm-3.7203 13.6768c-2.4514 3.8852-5.8899 6.9295-10.3625 9.1307l1.3247 2.6917c4.9327-2.4276 8.8067-5.834 11.575-10.2215zm-10.3568 9.1279c-4.4619 2.1726-9.7077 3.2833-15.778 3.2833v3c6.4373 0 12.1479-1.179 17.0913-3.586zm-15.778 3.2833c-6.0959 0-11.3538-1.1111-15.8149-3.2833l-1.3134 2.6973c4.9442 2.4074 10.6674 3.586 17.1283 3.586zm-15.8093-3.2805c-4.4726-2.2012-7.9111-5.2455-10.3625-9.1307l-2.5371 1.6009c2.7683 4.3875 6.6422 7.7939 11.5749 10.2215zm-10.3625-9.1307c-2.44-3.8671-3.6833-8.4078-3.6833-13.6768h-3.00003c0 5.7612 1.36647 10.8721 4.14623 15.2777zm-3.6833-13.6768v-49.11937h-3.00003v49.11937zm-1.50003-47.61937h15.99143v-2.999996h-15.99143zm14.49143-1.5v47.75287h3v-47.75287zm0 47.75287c0 3.1057.6791 5.9244 2.0751 8.4151l2.617-1.4667c-1.1155-1.9902-1.6921-4.2927-1.6921-6.9484zm2.0812 8.426c1.4202 2.4854 3.4197 4.4397 5.9683 5.8496l1.4522-2.6251c-2.0802-1.1507-3.6754-2.7172-4.8158-4.7129zm5.9683 5.8496c2.5706 1.422 5.5244 2.1079 8.8142 2.1079v-3c-2.8655 0-5.3038-.5944-7.362-1.733zm8.8142 2.1079c3.3116 0 6.269-.6848 8.8201-2.1112l-1.4641-2.6185c-2.0284 1.1342-4.4631 1.7297-7.356 1.7297zm8.8141-2.1079c2.551-1.4112 4.5412-3.3689 5.9376-5.8605l-2.617-1.4667c-1.115 1.9896-2.6949 3.5527-4.7727 4.7021zm5.9314-5.8496c1.4244-2.4927 2.1181-5.3153 2.1181-8.426h-3c0 2.6507-.5866 4.9492-1.7228 6.9376zm2.1181-8.426v-47.75287h-3v47.75287z" fill="#000" mask="url(#c)"/></g><path d="m8 1.5h64v-3h-64zm70.5 6.5v64h3v-64zm-6.5 70.5h-64v3h64zm-70.5-6.5v-64h-3v64zm6.5 6.5c-3.58985 0-6.5-2.9101-6.5-6.5h-3c0 5.2467 4.2533 9.5 9.5 9.5zm70.5-6.5c0 3.5899-2.9101 6.5-6.5 6.5v3c5.2467 0 9.5-4.2533 9.5-9.5zm-6.5-70.5c3.5899 0 6.5 2.91015 6.5 6.5h3c0-5.24671-4.2533-9.5-9.5-9.5zm-64-3c-5.24671 0-9.5 4.2533-9.5 9.5h3c0-3.58985 2.91015-6.5 6.5-6.5z" fill="#000" mask="url(#b)"/></svg>