<svg fill="none" height="80" viewBox="0 0 80 80" width="80" xmlns="http://www.w3.org/2000/svg" xmlns:xlink="http://www.w3.org/1999/xlink"><clipPath id="a"><path d="m0 8c0-4.41828 3.58172-8 8-8h64c4.4183 0 8 3.58172 8 8v64c0 4.4183-3.5817 8-8 8h-64c-4.41828 0-8-3.5817-8-8z"/></clipPath><mask id="b" fill="#fff"><path d="m0 8c0-4.41828 3.58172-8 8-8h64c4.4183 0 8 3.58172 8 8v64c0 4.4183-3.5817 8-8 8h-64c-4.41828 0-8-3.5817-8-8z" fill="#fff"/></mask><mask id="c" fill="#000" height="82" maskUnits="userSpaceOnUse" width="68" x="6" y="-1"><path d="m6-1h68v82h-68z" fill="#fff"/><path d="m8.06339 14.7468v-13.56498h63.91121v13.56498h-23.8242v64.2532h-16.2628v-64.2532z" fill="#000"/></mask><g clip-path="url(#a)"><path d="m8.06339 14.7468v-13.56498h63.91121v13.56498h-23.8242v64.2532h-16.2628v-64.2532z" fill="#fc4c02"/><path d="m8.06339 14.7468h-1.5v1.5h1.5zm0-13.56498v-1.500004h-1.5v1.500004zm63.91121 0h1.5v-1.500004h-1.5zm0 13.56498v1.5h1.5v-1.5zm-23.8242 0v-1.5h-1.5v1.5zm0 64.2532v1.5h1.5v-1.5zm-16.2628 0h-1.5v1.5h1.5zm0-64.2532h1.5v-1.5h-1.5zm-22.32421 0v-13.56498h-3v13.56498zm-1.5-12.06498h63.91121v-3.000004h-63.91121zm62.41121-1.5v13.56498h3v-13.56498zm1.5 12.06498h-23.8242v3h23.8242zm-25.3242 1.5v64.2532h3v-64.2532zm1.5 62.7532h-16.2628v3h16.2628zm-14.7628 1.5v-64.2532h-3v64.2532zm-1.5-65.7532h-23.82421v3h23.82421z" fill="#000" mask="url(#c)"/></g><path d="m8 1.5h64v-3h-64zm70.5 6.5v64h3v-64zm-6.5 70.5h-64v3h64zm-70.5-6.5v-64h-3v64zm6.5 6.5c-3.58985 0-6.5-2.9101-6.5-6.5h-3c0 5.2467 4.2533 9.5 9.5 9.5zm70.5-6.5c0 3.5899-2.9101 6.5-6.5 6.5v3c5.2467 0 9.5-4.2533 9.5-9.5zm-6.5-70.5c3.5899 0 6.5 2.91015 6.5 6.5h3c0-5.24671-4.2533-9.5-9.5-9.5zm-64-3c-5.24671 0-9.5 4.2533-9.5 9.5h3c0-3.58985 2.91015-6.5 6.5-6.5z" fill="#000" mask="url(#b)"/></svg>