<svg fill="none" height="80" viewBox="0 0 80 80" width="80" xmlns="http://www.w3.org/2000/svg" xmlns:xlink="http://www.w3.org/1999/xlink"><clipPath id="a"><path d="m0 8c0-4.41828 3.58172-8 8-8h64c4.4183 0 8 3.58172 8 8v64c0 4.4183-3.5817 8-8 8h-64c-4.41828 0-8-3.5817-8-8z"/></clipPath><mask id="b" fill="#fff"><path d="m0 8c0-4.41828 3.58172-8 8-8h64c4.4183 0 8 3.58172 8 8v64c0 4.4183-3.5817 8-8 8h-64c-4.41828 0-8-3.5817-8-8z" fill="#fff"/></mask><mask id="c" fill="#000" height="82" maskUnits="userSpaceOnUse" width="63" x="10" y="-1"><path d="m10-1h63v82h-63z" fill="#fff"/><path d="m12.1243 79v-77.81818h30.7017c5.9023 0 10.9306 1.12725 15.0849 3.38174 4.1544 2.22917 7.3208 5.33227 9.4993 9.30934 2.2038 3.9517 3.3058 8.5113 3.3058 13.6789 0 5.1677-1.1146 9.7273-3.3438 13.679s-5.4589 7.0295-9.6893 9.2333c-4.205 2.2039-9.2966 3.3058-15.2748 3.3058h-19.5686v-13.185h16.9088c3.1664 0 5.7755-.5447 7.8274-1.6339 2.0772-1.1146 3.6224-2.6471 4.6356-4.5977 1.0386-1.9758 1.5579-4.243 1.5579-6.8015 0-2.5838-.5193-4.8383-1.5579-6.7635-1.0132-1.9505-2.5584-3.4577-4.6356-4.5216-2.0772-1.0893-4.7117-1.6339-7.9034-1.6339h-11.0952v64.3672z" fill="#000"/></mask><g clip-path="url(#a)"><path d="m12.1243 79v-77.81818h30.7017c5.9023 0 10.9306 1.12725 15.0849 3.38174 4.1544 2.22917 7.3208 5.33227 9.4993 9.30934 2.2038 3.9517 3.3058 8.5113 3.3058 13.6789 0 5.1677-1.1146 9.7273-3.3438 13.679s-5.4589 7.0295-9.6893 9.2333c-4.205 2.2039-9.2966 3.3058-15.2748 3.3058h-19.5686v-13.185h16.9088c3.1664 0 5.7755-.5447 7.8274-1.6339 2.0772-1.1146 3.6224-2.6471 4.6356-4.5977 1.0386-1.9758 1.5579-4.243 1.5579-6.8015 0-2.5838-.5193-4.8383-1.5579-6.7635-1.0132-1.9505-2.5584-3.4577-4.6356-4.5216-2.0772-1.0893-4.7117-1.6339-7.9034-1.6339h-11.0952v64.3672z" fill="#fc4c02"/><path d="m12.1243 79h-1.5v1.5h1.5zm0-77.81818v-1.500004h-1.5v1.500004zm45.7866 3.38174-.7155 1.3184.0063.00335zm9.4993 9.30934-1.3156.7206.0056.01zm-9.7273 36.5912-.693-1.3303-.0033.0017zm-34.8434 3.3058h-1.5v1.5h1.5zm0-13.185v-1.5h-1.5v1.5zm24.7362-1.6339.7033 1.3249.0059-.0032zm4.6356-4.5977-1.3277-.6979-.0034.0065zm0-13.565-1.3311.6915.0054.0104.0056.0103zm-4.6356-4.5216-.6966 1.3284.0064.0034.0064.0033zm-18.9986-1.6339v-1.5h-1.5v1.5zm0 64.3672v1.5h1.5v-1.5zm-14.9528 0v-77.81818h-3v77.81818zm-1.5-76.31818h30.7017v-3.000004h-30.7017zm30.7017 0c5.7135 0 10.4828 1.09091 14.3695 3.20012l1.4309-2.63675c-4.4221-2.399788-9.7094-3.563374-15.8004-3.563374zm14.3757 3.20349c3.909 2.09751 6.8598 4.99649 8.8929 8.70819l2.6312-1.4413c-2.3239-4.24234-5.706-7.54956-10.1057-9.91038zm8.8985 8.71819c2.0624 3.6982 3.1158 7.9997 3.1158 12.9483h3c0-5.3865-1.1506-10.2044-3.4958-14.4095zm3.1158 12.9483c0 4.9459-1.0647 9.245-3.1503 12.942l2.613 1.474c2.3728-4.2063 3.5373-9.0265 3.5373-14.416zm-3.1503 12.942c-2.0789 3.6854-5.0892 6.5632-9.0758 8.64l1.3861 2.6606c4.474-2.3308 7.9233-5.6086 10.3027-9.8266zm-9.0791 8.6417c-3.9416 2.0658-8.7814 3.1344-14.5785 3.1344v3c6.1592 0 11.5027-1.1353 15.9711-3.4772zm-14.5785 3.1344h-19.5686v3h19.5686zm-18.0686 1.5v-13.185h-3v13.185zm-1.5-11.685h16.9088v-3h-16.9088zm16.9088 0c3.3268 0 6.198-.5707 8.5307-1.809l-1.4067-2.6498c-1.771.9402-4.118 1.4588-7.124 1.4588zm8.5366-1.8122c2.3229-1.2464 4.0949-2.9898 5.2575-5.2279l-2.6622-1.3829c-.8638 1.6629-2.1823 2.9846-4.0137 3.9674zm5.2542-5.2214c1.1673-2.2207 1.7301-4.7336 1.7301-7.4995h-3c0 2.3512-.4757 4.3726-1.3856 6.1036zm1.7301-7.4995c0-2.7873-.5614-5.2951-1.7377-7.4756l-2.6403 1.4243c.9008 1.6699 1.378 3.6711 1.378 6.0513zm-1.7268-7.4549c-1.166-2.2447-2.9465-3.9686-5.2829-5.1653l-1.3676 2.6702c1.8179.9311 3.1279 2.2216 3.9883 3.878zm-5.2701-5.1586c-2.3555-1.2352-5.249-1.8055-8.6-1.8055v3c3.0325 0 5.4079.519 7.2068 1.4623zm-8.6-1.8055h-11.0952v3h11.0952zm-12.5952 1.5v64.3672h3v-64.3672zm1.5 62.8672h-16.4528v3h16.4528z" fill="#000" mask="url(#c)"/></g><path d="m8 1.5h64v-3h-64zm70.5 6.5v64h3v-64zm-6.5 70.5h-64v3h64zm-70.5-6.5v-64h-3v64zm6.5 6.5c-3.58985 0-6.5-2.9101-6.5-6.5h-3c0 5.2467 4.2533 9.5 9.5 9.5zm70.5-6.5c0 3.5899-2.9101 6.5-6.5 6.5v3c5.2467 0 9.5-4.2533 9.5-9.5zm-6.5-70.5c3.5899 0 6.5 2.91015 6.5 6.5h3c0-5.24671-4.2533-9.5-9.5-9.5zm-64-3c-5.24671 0-9.5 4.2533-9.5 9.5h3c0-3.58985 2.91015-6.5 6.5-6.5z" fill="#000" mask="url(#b)"/></svg>