<svg fill="none" height="80" viewBox="0 0 80 80" width="80" xmlns="http://www.w3.org/2000/svg" xmlns:xlink="http://www.w3.org/1999/xlink"><clipPath id="a"><path d="m0 8c0-4.41828 3.58172-8 8-8h64c4.4183 0 8 3.58172 8 8v64c0 4.4183-3.5817 8-8 8h-64c-4.41828 0-8-3.5817-8-8z"/></clipPath><mask id="b" fill="#fff"><path d="m0 8c0-4.41828 3.58172-8 8-8h64c4.4183 0 8 3.58172 8 8v64c0 4.4183-3.5817 8-8 8h-64c-4.41828 0-8-3.5817-8-8z" fill="#fff"/></mask><mask id="c" fill="#000" height="80" maskUnits="userSpaceOnUse" width="71" x="3" y="0"><path d="m3 0h71v80h-71z" fill="#fff"/><path d="m55.6364 26.7969c-.5071-1.7628-1.2195-3.3203-2.1371-4.6726-.9176-1.3764-2.0405-2.5355-3.3686-3.4773-1.304-.9659-2.8012-1.7024-4.4915-2.2095-1.6662-.5071-3.5135-.7607-5.5419-.7607-3.7912 0-7.1236.9418-9.9972 2.8253-2.8494 1.8836-5.071 4.6243-6.6647 8.2223-1.5938 3.5739-2.3907 7.9446-2.3907 13.1122 0 5.1677.7848 9.5625 2.3544 13.1847 1.5697 3.6222 3.7912 6.3871 6.6648 8.2948 2.8736 1.8835 6.2664 2.8252 10.1783 2.8252 3.5497 0 6.5802-.6278 9.0916-1.8835 2.5355-1.2798 4.4673-3.0788 5.7955-5.397 1.3522-2.3182 2.0284-5.059 2.0284-8.2223l3.1875.4709h-19.125v-11.8083h31.0419v9.3452c0 6.5199-1.3764 12.1222-4.1293 16.8068-2.7528 4.6605-6.544 8.2585-11.3736 10.7941-4.8295 2.5113-10.3593 3.767-16.5895 3.767-6.9545 0-13.0639-1.5334-18.3281-4.6001-5.2642-3.0909-9.3693-7.4738-12.31532-13.1485-2.92188-5.6988-4.38281-12.4602-4.38281-20.2841 0-6.0128.86931-11.3735 2.60795-16.0824 1.76278-4.7329 4.22588-8.7414 7.38918-12.0255 3.1634-3.28411 6.8459-5.7834 11.0476-7.49789s8.7536-2.57174 13.6556-2.57174c4.2017 0 8.1136.61577 11.7357 1.84731 3.6222 1.20738 6.8339 2.92187 9.635 5.14346 2.8253 2.22156 5.1314 4.86576 6.9183 7.93256 1.7869 3.0426 2.934 6.3991 3.4411 10.0696z" fill="#000"/></mask><g clip-path="url(#a)"><path d="m55.6364 26.7969c-.5071-1.7628-1.2195-3.3203-2.1371-4.6726-.9176-1.3764-2.0405-2.5355-3.3686-3.4773-1.304-.9659-2.8012-1.7024-4.4915-2.2095-1.6662-.5071-3.5135-.7607-5.5419-.7607-3.7912 0-7.1236.9418-9.9972 2.8253-2.8494 1.8836-5.071 4.6243-6.6647 8.2223-1.5938 3.5739-2.3907 7.9446-2.3907 13.1122 0 5.1677.7848 9.5625 2.3544 13.1847 1.5697 3.6222 3.7912 6.3871 6.6648 8.2948 2.8736 1.8835 6.2664 2.8252 10.1783 2.8252 3.5497 0 6.5802-.6278 9.0916-1.8835 2.5355-1.2798 4.4673-3.0788 5.7955-5.397 1.3522-2.3182 2.0284-5.059 2.0284-8.2223l3.1875.4709h-19.125v-11.8083h31.0419v9.3452c0 6.5199-1.3764 12.1222-4.1293 16.8068-2.7528 4.6605-6.544 8.2585-11.3736 10.7941-4.8295 2.5113-10.3593 3.767-16.5895 3.767-6.9545 0-13.0639-1.5334-18.3281-4.6001-5.2642-3.0909-9.3693-7.4738-12.31532-13.1485-2.92188-5.6988-4.38281-12.4602-4.38281-20.2841 0-6.0128.86931-11.3735 2.60795-16.0824 1.76278-4.7329 4.22588-8.7414 7.38918-12.0255 3.1634-3.28411 6.8459-5.7834 11.0476-7.49789s8.7536-2.57174 13.6556-2.57174c4.2017 0 8.1136.61577 11.7357 1.84731 3.6222 1.20738 6.8339 2.92187 9.635 5.14346 2.8253 2.22156 5.1314 4.86576 6.9183 7.93256 1.7869 3.0426 2.934 6.3991 3.4411 10.0696z" fill="#fc4c02"/><path d="m55.6364 26.7969-1.4416.4147.3122 1.0853h1.1294zm-2.1371-4.6726-1.2481.8321.0069.0101zm-3.3686-3.4773-.8929 1.2054.0125.0092.0127.009zm-4.4915-2.2095-.4367 1.435.0057.0017zm-15.5391 2.0646-.8223-1.2545-.0048.0032zm-6.6647 8.2223 1.3699.611.0015-.0035zm6.6285 34.5916-.8296 1.2498.0073.0048zm19.2699.9418.6708 1.3417.0051-.0026zm5.7955-5.397-1.2957-.7558-.0059.0101zm2.0284-8.2223.2192-1.4839-1.7192-.254v1.7379zm3.1875.4709v1.5l.2192-2.9839zm-19.125 0h-1.5v1.5h1.5zm0-11.8083v-1.5h-1.5v1.5zm31.0419 0h1.5v-1.5h-1.5zm-4.1293 26.152 1.2915.7629.0018-.0029zm-11.3736 10.7941.6921 1.3308.0052-.0027zm-34.9176-.8331-.7595 1.2935.0045.0026zm-12.31532-13.1485-1.3348.6844.00351.0068zm-1.77486-36.3665-1.40567-.5235-.00147.004zm7.38918-12.0255 1.0804 1.0406zm11.0476-7.49789-.5667-1.38883zm25.3913-.72443-.4828 1.42018.0085.00284zm9.635 5.14346-.9321 1.17526.0049.00387zm6.9183 7.93256-1.296.7551.0026.0045zm3.4411 10.0696v1.5h1.7214l-.2355-1.7053zm-14.496-.4147c-.5456-1.8966-1.3207-3.6019-2.3374-5.1002l-2.4824 1.6845c.8185 1.2063 1.4681 2.6161 1.9367 4.2451zm-2.3305-5.09c-1.0178-1.5266-2.2688-2.8191-3.7491-3.8688l-1.7353 2.4472c1.176.8339 2.1707 1.8595 2.9882 3.0857zm-3.7239-3.8505c-1.4551-1.0779-3.1113-1.8884-4.9533-2.4409l-.862 2.8734c1.5387.4617 2.8768 1.1242 4.0296 1.9782zm-4.9476-2.4392c-1.8288-.5566-3.826-.8257-5.9786-.8257v3c1.9042 0 3.6016.2381 5.1052.6957zm-5.9786-.8257c-4.052 0-7.6765 1.0107-10.8195 3.0708l1.6446 2.5091c2.6043-1.707 5.6445-2.5799 9.1749-2.5799zm-10.8243 3.074c-3.1234 2.0646-5.5173 5.0467-7.2091 8.8661l2.7429 1.215c1.4957-3.3766 3.545-5.876 6.1205-7.5784zm-7.2076 8.8627c-1.7023 3.8172-2.5207 8.4093-2.5207 13.7231h3c0-5.0213.7754-9.1707 2.2606-12.5012zm-2.5207 13.7231c0 5.3124.8059 9.9222 2.4781 13.7811l2.7527-1.1928c-1.467-3.3854-2.2308-7.5654-2.2308-12.5883zm2.4781 13.7811c1.6678 3.8487 4.0629 6.8578 7.2115 8.948l1.6592-2.4993c-2.5985-1.7251-4.6466-4.2459-6.118-7.6415zm7.2188 8.9529c3.1506 2.0651 6.8382 3.0707 11.0006 3.0707v-3c-3.6615 0-6.7594-.8778-9.356-2.5798zm11.0006 3.0707c3.7227 0 6.9951-.6582 9.7624-2.0418l-1.3416-2.6833c-2.2554 1.1277-5.0441 1.7251-8.4208 1.7251zm9.7675-2.0444c2.7803-1.4034 4.9376-3.4011 6.4211-5.9904l-2.6031-1.4914c-1.1727 2.0471-2.8791 3.6473-5.1698 4.8036zm6.4152-5.9803c1.5083-2.5856 2.2328-5.597 2.2328-8.9781h-3c0 2.9456-.6278 5.4158-1.8241 7.4665zm.5136-7.4942 3.1875.4709.4384-2.9678-3.1875-.4709zm3.4067-2.513h-19.125v3h19.125zm-17.625 1.5v-11.8083h-3v11.8083zm-1.5-10.3083h31.0419v-3h-31.0419zm29.5419-1.5v9.3452h3v-9.3452zm0 9.3452c0 6.3062-1.3298 11.6348-3.9225 16.0469l2.5865 1.5199c2.913-4.9572 4.336-10.8333 4.336-17.5668zm-3.9208 16.044c-2.61 4.4186-6.1945 7.8217-10.7793 10.2288l1.3945 2.6562c5.0743-2.664 9.0721-6.4569 11.9678-11.3593zm-10.7741 10.226c-4.5867 2.3851-9.8732 3.5979-15.8975 3.5979v3c6.436 0 12.2092-1.2986 17.2816-3.9362zm-15.8975 3.5979c-6.7274 0-12.5689-1.481-17.573-4.3962l-1.5101 2.5922c5.5243 3.2183 11.9015 4.804 19.0831 4.804zm-17.5686-4.3936c-5.0089-2.941-8.9211-7.1095-11.7435-12.5461l-2.66261 1.3823c3.06961 5.9128 7.36761 10.51 12.88711 13.7508zm-11.74-12.5393c-2.79185-5.4452-4.21763-11.9619-4.21763-19.5998h-3c0 8.0099 1.49609 15.016 4.54802 20.9685zm-4.21763-19.5998c0-5.8696.84869-11.0496 2.5151-15.5628l-2.81429-1.0391c-1.81087 4.9044-2.70081 10.446-2.70081 16.6019zm2.51362-15.5588c1.69871-4.561 4.05791-8.3879 7.06391-11.5085l-2.1607-2.0812c-3.3208 3.4475-5.8877 7.6376-7.71455 12.5426zm7.06391-11.5085c3.019-3.13424 6.5268-5.51457 10.5339-7.14966l-1.1334-2.77766c-4.3963 1.79388-8.2535 4.41214-11.5612 7.84612zm10.5339-7.14966c4.0078-1.63537 8.3655-2.46057 13.0889-2.46057v-2.999996c-5.0806 0-9.8267.889286-14.2223 2.682906zm13.0889-2.46057c4.0535 0 7.8007.59373 11.2529 1.76747l.9657-2.84032c-3.7922-1.28934-7.8688-1.927146-12.2186-1.927146zm11.2614 1.77033c3.4676 1.15588 6.5221 2.78992 9.1772 4.89569l1.8642-2.35049c-2.9472-2.33742-6.316-4.13235-10.0927-5.39125zm9.1821 4.89957c2.6787 2.10623 4.8589 4.60723 6.5495 7.50853l2.592-1.5103c-1.8832-3.2322-4.3152-6.01958-7.2871-8.35649zm6.5521 7.51303c1.6819 2.8638 2.7671 6.0305 3.2486 9.5153l2.9718-.4106c-.5328-3.8562-1.7416-7.4026-3.6336-10.624zm4.7345 7.81h-15.9375v3h15.9375z" fill="#000" mask="url(#c)"/></g><path d="m8 1.5h64v-3h-64zm70.5 6.5v64h3v-64zm-6.5 70.5h-64v3h64zm-70.5-6.5v-64h-3v64zm6.5 6.5c-3.58985 0-6.5-2.9101-6.5-6.5h-3c0 5.2467 4.2533 9.5 9.5 9.5zm70.5-6.5c0 3.5899-2.9101 6.5-6.5 6.5v3c5.2467 0 9.5-4.2533 9.5-9.5zm-6.5-70.5c3.5899 0 6.5 2.91015 6.5 6.5h3c0-5.24671-4.2533-9.5-9.5-9.5zm-64-3c-5.24671 0-9.5 4.2533-9.5 9.5h3c0-3.58985 2.91015-6.5 6.5-6.5z" fill="#000" mask="url(#b)"/></svg>