<svg fill="none" height="80" viewBox="0 0 80 80" width="80" xmlns="http://www.w3.org/2000/svg" xmlns:xlink="http://www.w3.org/1999/xlink"><clipPath id="a"><path d="m0 8c0-4.41828 3.58172-8 8-8h64c4.4183 0 8 3.58172 8 8v64c0 4.4183-3.5817 8-8 8h-64c-4.41828 0-8-3.5817-8-8z"/></clipPath><mask id="b" fill="#fff"><path d="m0 8c0-4.41828 3.58172-8 8-8h64c4.4183 0 8 3.58172 8 8v64c0 4.4183-3.5817 8-8 8h-64c-4.41828 0-8-3.5817-8-8z" fill="#fff"/></mask><mask id="c" height="80" maskUnits="userSpaceOnUse" width="80" x="0" y="0"><path d="m0 8c0-4.41828 3.58172-8 8-8h64c4.4183 0 8 3.58172 8 8v64c0 4.4183-3.5817 8-8 8h-64c-4.41828 0-8-3.5817-8-8z" fill="#fff"/></mask><mask id="d" height="80" maskUnits="userSpaceOnUse" width="80" x="0" y="0"><path d="m0 8c0-4.41828 3.58172-8 8-8h64c4.4183 0 8 3.58172 8 8v64c0 4.4183-3.5817 8-8 8h-64c-4.41828 0-8-3.5817-8-8z" fill="#fff"/></mask><g clip-path="url(#a)"><g mask="url(#c)"><g mask="url(#d)"><path d="m8 1.5h64v-3h-64zm70.5 6.5v64h3v-64zm-6.5 70.5h-64v3h64zm-70.5-6.5v-64h-3v64zm6.5 6.5c-3.58985 0-6.5-2.9101-6.5-6.5h-3c0 5.2467 4.2533 9.5 9.5 9.5zm70.5-6.5c0 3.5899-2.9101 6.5-6.5 6.5v3c5.2467 0 9.5-4.2533 9.5-9.5zm-6.5-70.5c3.5899 0 6.5 2.91015 6.5 6.5h3c0-5.24671-4.2533-9.5-9.5-9.5zm-64-3c-5.24671 0-9.5 4.2533-9.5 9.5h3c0-3.58985 2.91015-6.5 6.5-6.5z" fill="#000"/></g><path d="m9 80v-80h32.0313c5.8854 0 10.7942.872396 14.7265 2.61719 3.9323 1.74479 6.8881 4.16666 8.8672 7.26562 1.9792 3.07289 2.9688 6.61459 2.9688 10.62499 0 3.125-.625 5.8724-1.875 8.2422-1.25 2.3437-2.9688 4.2708-5.1563 5.7812-2.1614 1.4844-4.6354 2.5391-7.4218 3.1641v.7813c3.0468.1302 5.8984.9895 8.5546 2.5781 2.6823 1.5885 4.8568 3.8151 6.5235 6.6797 1.6666 2.8385 2.5 6.2239 2.5 10.1562 0 4.2448-1.0547 8.0339-3.1641 11.3672-2.0833 3.3073-5.1693 5.9245-9.2578 7.8516s-9.1276 2.8906-15.1172 2.8906zm16.9141-13.8281h13.7891c4.7135 0 8.151-.8985 10.3125-2.6953 2.1614-1.823 3.2421-4.2448 3.2421-7.2657 0-2.2135-.5338-4.1666-1.6015-5.8593s-2.5912-3.0209-4.5703-3.9844c-1.9532-.9636-4.2839-1.4453-6.9922-1.4453h-14.1797zm0-32.6953h12.539c2.3178 0 4.3751-.4037 6.1719-1.211 1.8229-.8333 3.2552-2.0052 4.2969-3.5156 1.0677-1.5104 1.6016-3.3203 1.6016-5.4297 0-2.8906-1.0287-5.2213-3.086-6.9922-2.0312-1.7708-4.9218-2.6562-8.6718-2.6562h-12.8516z" fill="#ff480c"/><path d="m8.75 80h-.75v.75h.75zm0-79.99999988v-.75000012h-.75v.75000012zm55.625 9.88280988-.6321.40369.0016.0024zm1.0938 18.86719.6617.3529.0017-.003zm-5.1563 5.7812.4246.6183.0016-.0011zm-7.4218 3.1641-.1642-.7318-.5858.1314v.6004zm0 .7813h-.75v.7186l.7179.0307zm8.5546 2.5781-.3849.6437.0028.0016zm6.5235 6.6797-.6483.3771.0015.0026zm-.6641 21.5234-.6338-.401-.0008.0013zm-41.6406-3.0859h-.75v.75h.75zm24.1016-2.6953.4794.5767.0041-.0034zm-2.9297-17.1094-.3319.6726.0036.0017zm-21.1719-1.4453v-.75h-.75v.75zm0-11.4453h-.75v.75h.75zm18.7109-1.211.3074.6842.0044-.0021zm4.2969-3.5156-.6125-.433-.0049.0072zm-1.4844-12.4219-.4928.5654.0035.003zm-21.5234-2.6562v-.75h-.75v.75zm-16.1641 66.3281v-79.99999988h-1.5v79.99999988zm-.75-79.25h32.0313v-1.5h-32.0313zm32.0313 0c5.8169 0 10.6142.86302 14.4224 2.55273l.6083-1.37109c-4.0564-1.799874-9.0768-2.68164-15.0307-2.68164zm14.4224 2.55273c3.821 1.69544 6.6521 4.02885 8.5392 6.98377l1.2642-.80738c-2.0711-3.243-5.1516-5.75334-9.1951-7.54748zm8.5408 6.98617c1.8937 2.9402 2.8493 6.338 2.8493 10.2189h1.5c0-4.1399-1.0236-7.8254-3.0882-11.0311zm2.8493 10.2189c0 3.0234-.6041 5.647-1.7884 7.8923l1.3268.6998c1.3156-2.4943 1.9616-5.3655 1.9616-8.5921zm-1.7868 7.8893c-1.1936 2.238-2.8315 4.0745-4.9206 5.517l.8523 1.2343c2.2859-1.5784 4.0855-3.596 5.3918-6.0455zm-4.9191 5.5159c-2.0759 1.4256-4.4598 2.4445-7.1614 3.0505l.3283 1.4636c2.8714-.644 5.4353-1.7345 7.6823-3.2776zm-7.7472 3.7823v.7813h1.5v-.7813zm.7179 1.5306c2.9204.1248 5.6509.9469 8.2018 2.4725l.7699-1.2874c-2.7616-1.6515-5.7342-2.5481-8.9076-2.6838zm8.2046 2.4741c2.5652 1.5192 4.6508 3.6504 6.2573 6.4115l1.2965-.7543c-1.7268-2.968-3.9901-5.2899-6.7895-6.9478zm6.2588 6.4141c1.587 2.7028 2.3968 5.9517 2.3968 9.7765h1.5c0-4.0397-.8569-7.5617-2.6033-10.536zm2.3968 9.7765c0 4.1141-1.0202 7.762-3.0479 10.9662l1.2676.8021c2.1911-3.4625 3.2803-7.3927 3.2803-11.7683zm-3.0487 10.9675c-1.9958 3.1683-4.9631 5.697-8.943 7.5729l.6396 1.3568c4.1972-1.9783 7.4017-4.684 9.5726-8.1302zm-8.943 7.5729c-3.9615 1.8672-8.8841 2.819-14.7974 2.819v1.5c6.0659 0 11.2214-.9753 15.437-2.9622zm-14.7974 2.819h-34.1797v1.5h34.1797zm-17.2656-12.3281h13.789v-1.5h-13.789zm13.789 0c4.7798 0 8.4308-.9057 10.792-2.8686l-.9589-1.1535c-1.9618 1.6309-5.1857 2.5221-9.8331 2.5221zm10.7961-2.872c2.3431-1.9762 3.5086-4.6143 3.5086-7.839h-1.5c0 2.817-.9959 5.0227-2.9757 6.6923zm3.5086-7.839c0-2.3396-.566-4.4345-1.7172-6.2595l-1.2687.8003c.9843 1.5604 1.4859 3.3718 1.4859 5.4592zm-1.7172-6.2595c-1.1495-1.8224-2.7846-3.2402-4.8763-4.2585l-.6566 1.3486c1.8666.9087 3.2784 2.1472 4.2642 3.7102zm-4.8728-4.2568c-2.0784-1.0253-4.528-1.5227-7.324-1.5227v1.5c2.6206 0 4.8325.4661 6.6603 1.3679zm-7.324-1.5227h-14.1797v1.5h14.1797zm-14.9297.75v21.25h1.5v-21.25zm.75-10.6953h12.539v-1.5h-12.539zm12.539 0c2.4052 0 4.5702-.419 6.4793-1.2768l-.6147-1.3683c-1.6847.7569-3.6343 1.1451-5.8646 1.1451zm6.4837-1.2789c1.9343-.8842 3.477-2.1399 4.6025-3.7719l-1.2348-.8516c-.9578 1.3888-2.2798 2.4769-3.9913 3.2593zm4.5975-3.7648c1.1695-1.6543 1.7392-3.6207 1.7392-5.8626h-1.5c0 1.9769-.4981 3.6301-1.4641 4.9967zm1.7392-5.8626c0-3.0929-1.112-5.6371-3.3467-7.5606l-.9786 1.1368c1.88 1.6182 2.8253 3.7355 2.8253 6.4238zm-3.3431-7.5575c-2.2131-1.9294-5.3043-2.8409-9.1647-2.8409v1.5c3.6395 0 6.3296.8592 8.179 2.4716zm-9.1647-2.8409h-12.8516v1.5h12.8516zm-13.6016.75v19.8047h1.5v-19.8047z" fill="#000"/></g></g><path d="m8 1.5h64v-3h-64zm70.5 6.5v64h3v-64zm-6.5 70.5h-64v3h64zm-70.5-6.5v-64h-3v64zm6.5 6.5c-3.58985 0-6.5-2.9101-6.5-6.5h-3c0 5.2467 4.2533 9.5 9.5 9.5zm70.5-6.5c0 3.5899-2.9101 6.5-6.5 6.5v3c5.2467 0 9.5-4.2533 9.5-9.5zm-6.5-70.5c3.5899 0 6.5 2.91015 6.5 6.5h3c0-5.24671-4.2533-9.5-9.5-9.5zm-64-3c-5.24671 0-9.5 4.2533-9.5 9.5h3c0-3.58985 2.91015-6.5 6.5-6.5z" fill="#000" mask="url(#b)"/></svg>