<svg fill="none" height="80" viewBox="0 0 80 80" width="80" xmlns="http://www.w3.org/2000/svg" xmlns:xlink="http://www.w3.org/1999/xlink"><clipPath id="a"><path d="m0 8c0-4.41828 3.58172-8 8-8h64c4.4183 0 8 3.58172 8 8v64c0 4.4183-3.5817 8-8 8h-64c-4.41828 0-8-3.5817-8-8z"/></clipPath><mask id="b" fill="#fff"><path d="m0 8c0-4.41828 3.58172-8 8-8h64c4.4183 0 8 3.58172 8 8v64c0 4.4183-3.5817 8-8 8h-64c-4.41828 0-8-3.5817-8-8z" fill="#fff"/></mask><mask id="c" fill="#000" height="80" maskUnits="userSpaceOnUse" width="68" x="6" y="0"><path d="m6 0h68v80h-68z" fill="#fff"/><path d="m34.7074 78h-27.07033v-76.36364h27.29403c7.6811 0 14.2933 1.52877 19.8367 4.5863 5.5433 3.03266 9.8064 7.39524 12.7894 13.08774 3.0078 5.6924 4.5117 12.5035 4.5117 20.4332 0 7.9546-1.5039 14.7905-4.5117 20.5078-2.983 5.7173-7.271 10.1048-12.864 13.1623-5.5682 3.0575-12.2301 4.5863-19.9858 4.5863zm-10.9251-13.8335h10.2539c4.7727 0 8.7873-.8451 12.0437-2.5355 3.2813-1.7152 5.7422-4.3625 7.3828-7.9421 1.6655-3.6044 2.4982-8.2528 2.4982-13.9453 0-5.6427-.8327-10.2539-2.4982-13.8334-1.6406-3.5796-4.0891-6.2145-7.3455-7.9049-3.2564-1.6903-7.271-2.5355-12.0437-2.5355h-10.2912z" fill="#000"/></mask><g clip-path="url(#a)"><path d="m34.7074 78h-27.07033v-76.36364h27.29403c7.6811 0 14.2933 1.52877 19.8367 4.5863 5.5433 3.03266 9.8064 7.39524 12.7894 13.08774 3.0078 5.6924 4.5117 12.5035 4.5117 20.4332 0 7.9546-1.5039 14.7905-4.5117 20.5078-2.983 5.7173-7.271 10.1048-12.864 13.1623-5.5682 3.0575-12.2301 4.5863-19.9858 4.5863zm-10.9251-13.8335h10.2539c4.7727 0 8.7873-.8451 12.0437-2.5355 3.2813-1.7152 5.7422-4.3625 7.3828-7.9421 1.6655-3.6044 2.4982-8.2528 2.4982-13.9453 0-5.6427-.8327-10.2539-2.4982-13.8334-1.6406-3.5796-4.0891-6.2145-7.3455-7.9049-3.2564-1.6903-7.271-2.5355-12.0437-2.5355h-10.2912z" fill="#fc4c02"/><path d="m7.63707 78h-1.5v1.5h1.5zm0-76.36364v-1.499999h-1.5v1.499999zm47.13073 4.5863-.7245 1.31346.0045.00248zm12.7894 13.08774-1.3287.6962.0024.0045zm0 40.941-1.3275-.6984-.0024.0046zm-12.864 13.1623-.7195-1.3162-.0025.0014zm-30.9109-9.2472h-1.5v1.5h1.5zm22.2976-2.5355.6911 1.3314.0038-.002zm7.3828-7.9421-1.3617-.6292-.0019.0042zm0-27.7787-1.3636.6249.0036.0078zm-7.3455-7.9049.6911-1.3313zm-22.3349-2.5355v-1.5h-1.5v1.5zm10.9251 61.0302h-27.07033v3h27.07033zm-25.57033 1.5v-76.36364h-3v76.36364zm-1.5-74.86364h27.29403v-2.999999h-27.29403zm27.29403 0c7.4815 0 13.8334 1.48814 19.1122 4.39975l1.4489-2.62691c-5.8079-3.20345-12.6803-4.772839-20.5611-4.772839zm19.1167 4.40224c5.2791 2.8881 9.3326 7.0328 12.1807 12.468l2.6573-1.3925c-3.1178-5.9498-7.5905-10.53014-13.3981-13.70738zm12.1831 12.4725c2.8703 5.4321 4.338 11.9913 4.338 19.7325h3c0-8.1182-1.5401-15.1811-4.6855-21.134zm4.338 19.7325c0 7.7667-1.468 14.3517-4.3392 19.8094l2.655 1.3968c3.1444-5.9769 4.6842-13.0638 4.6842-21.2062zm-4.3416 19.814c-2.8473 5.4573-6.9244 9.6266-12.2536 12.5399l1.439 2.6324c5.8568-3.2018 10.3557-7.8073 13.4744-13.7846zm-12.2561 12.5413c-5.3031 2.9119-11.7053 4.4011-19.2638 4.4011v3c7.9528 0 14.8745-1.5684 20.7078-4.7715zm-30.1889-6.4324h10.2539v-3h-10.2539zm10.2539 0c4.9433 0 9.2104-.8747 12.7348-2.7041l-1.3822-2.6627c-2.9884 1.5513-6.7504 2.3668-11.3526 2.3668zm12.7386-2.7061c3.5955-1.8795 6.2817-4.785 8.0515-8.6465l-2.7272-1.25c-1.5114 3.2977-3.7471 5.6869-6.7141 7.2378zm8.0496-8.6423c1.7872-3.8679 2.6365-8.7521 2.6365-14.5745h-3c0 5.5625-.8161 9.9753-2.3598 13.3161zm2.6365-14.5745c0-5.7743-.8497-10.6223-2.6382-14.4662l-2.72 1.2655c1.5425 3.3152 2.3582 7.6895 2.3582 13.2007zm-2.6346-14.4584c-1.769-3.8596-4.4427-6.7553-8.018-8.6112l-1.3822 2.6626c2.9374 1.5248 5.1607 3.899 6.673 7.1985zm-8.018-8.6112c-3.5244-1.8294-7.7915-2.7042-12.7348-2.7042v3c4.6021 0 8.3642.8156 11.3526 2.3668zm-12.7348-2.7042h-10.2912v3h10.2912zm-11.7912 1.5v48.6967h3v-48.6967z" fill="#000" mask="url(#c)"/></g><path d="m8 1.5h64v-3h-64zm70.5 6.5v64h3v-64zm-6.5 70.5h-64v3h64zm-70.5-6.5v-64h-3v64zm6.5 6.5c-3.58985 0-6.5-2.9101-6.5-6.5h-3c0 5.2467 4.2533 9.5 9.5 9.5zm70.5-6.5c0 3.5899-2.9101 6.5-6.5 6.5v3c5.2467 0 9.5-4.2533 9.5-9.5zm-6.5-70.5c3.5899 0 6.5 2.91015 6.5 6.5h3c0-5.24671-4.2533-9.5-9.5-9.5zm-64-3c-5.24671 0-9.5 4.2533-9.5 9.5h3c0-3.58985 2.91015-6.5 6.5-6.5z" fill="#000" mask="url(#b)"/></svg>