<svg fill="none" height="80" viewBox="0 0 80 80" width="80" xmlns="http://www.w3.org/2000/svg" xmlns:xlink="http://www.w3.org/1999/xlink"><clipPath id="a"><path d="m0 8c0-4.41828 3.58172-8 8-8h64c4.4183 0 8 3.58172 8 8v64c0 4.4183-3.5817 8-8 8h-64c-4.41828 0-8-3.5817-8-8z"/></clipPath><mask id="b" fill="#fff"><path d="m0 8c0-4.41828 3.58172-8 8-8h64c4.4183 0 8 3.58172 8 8v64c0 4.4183-3.5817 8-8 8h-64c-4.41828 0-8-3.5817-8-8z" fill="#fff"/></mask><mask id="c" fill="#000" height="82" maskUnits="userSpaceOnUse" width="80" x="0" y="-1"><path d="m0-1h80v82h-80z" fill="#fff"/><path d="m3.43723 1.18182h18.42867l17.7446 33.51348h.76l17.7446-33.51348h18.4287l-28.3839 50.30828v27.5099h-16.3388v-27.5099z" fill="#000"/></mask><g clip-path="url(#a)"><path d="m3.43723 1.18182h18.42867l17.7446 33.51348h.76l17.7446-33.51348h18.4287l-28.3839 50.30828v27.5099h-16.3388v-27.5099z" fill="#fc4c02"/><path d="m3.43723 1.18182v-1.500004h-2.568568l1.262158 2.237074zm18.42867 0 1.3256-.701904-.4226-.7981h-.903zm17.7446 33.51348-1.3256.7019.4226.7981h.903zm.76 0v1.5h.903l.4226-.7981zm17.7446-33.51348v-1.500004h-.903l-.4226.7981zm18.4287 0 1.3064.73707 1.2621-2.237074h-2.5685zm-28.3839 50.30828-1.3064-.7371-.1936.3431v.394zm0 27.5099v1.5h1.5v-1.5zm-16.3388 0h-1.5v1.5h1.5zm0-27.5099h1.5v-.394l-.1936-.3431zm-28.38387-48.80828h18.42867v-3.000004h-18.42867zm17.10297-.7981 17.7447 33.51348 2.6513-1.4038-17.7447-33.513484zm19.0703 34.31158h.76v-3h-.76zm2.0856-.7981 17.7447-33.51348-2.6513-1.403804-17.7447 33.513484zm16.419-32.71538h18.4287v-3.000004h-18.4287zm17.1223-2.237082-28.3839 50.308262 2.6128 1.4741 28.3839-50.30821zm-28.5775 51.045362v27.5099h3v-27.5099zm1.5 26.0099h-16.3388v3h16.3388zm-14.8388 1.5v-27.5099h-3v27.5099zm-.1936-28.247-28.38385-50.308262-2.61283 1.474152 28.38388 50.30821z" fill="#000" mask="url(#c)"/></g><path d="m8 1.5h64v-3h-64zm70.5 6.5v64h3v-64zm-6.5 70.5h-64v3h64zm-70.5-6.5v-64h-3v64zm6.5 6.5c-3.58985 0-6.5-2.9101-6.5-6.5h-3c0 5.2467 4.2533 9.5 9.5 9.5zm70.5-6.5c0 3.5899-2.9101 6.5-6.5 6.5v3c5.2467 0 9.5-4.2533 9.5-9.5zm-6.5-70.5c3.5899 0 6.5 2.91015 6.5 6.5h3c0-5.24671-4.2533-9.5-9.5-9.5zm-64-3c-5.24671 0-9.5 4.2533-9.5 9.5h3c0-3.58985 2.91015-6.5 6.5-6.5z" fill="#000" mask="url(#b)"/></svg>