<svg fill="none" height="80" viewBox="0 0 80 80" width="80" xmlns="http://www.w3.org/2000/svg" xmlns:xlink="http://www.w3.org/1999/xlink"><clipPath id="a"><path d="m0 8c0-4.41828 3.58172-8 8-8h64c4.4183 0 8 3.58172 8 8v64c0 4.4183-3.5817 8-8 8h-64c-4.41828 0-8-3.5817-8-8z"/></clipPath><mask id="b" fill="#fff"><path d="m0 8c0-4.41828 3.58172-8 8-8h64c4.4183 0 8 3.58172 8 8v64c0 4.4183-3.5817 8-8 8h-64c-4.41828 0-8-3.5817-8-8z" fill="#fff"/></mask><mask id="c" fill="#000" height="82" maskUnits="userSpaceOnUse" width="77" x="2" y="-1"><path d="m2-1h77v82h-77z" fill="#fff"/><path d="m24.4462 1.18182 15.6928 26.52198h.608l15.7688-26.52198h18.5806l-23.7482 38.90908 24.2802 38.9091h-18.9226l-15.9588-26.56h-.608l-15.9588 26.56h-18.84657l24.35617-38.9091-23.9002-38.90908z" fill="#000"/></mask><g clip-path="url(#a)"><path d="m24.4462 1.18182 15.6928 26.52198h.608l15.7688-26.52198h18.5806l-23.7482 38.90908 24.2802 38.9091h-18.9226l-15.9588-26.56h-.608l-15.9588 26.56h-18.84657l24.35617-38.9091-23.9002-38.90908z" fill="#fc4c02"/><path d="m24.4462 1.18182 1.2909-.763846-.4355-.736158h-.8554zm15.6928 26.52198-1.2909.7639.4356.7361h.8553zm.608 0v1.5h.8532l.4361-.7334zm15.7688-26.52198v-1.500004h-.8533l-.436.733423zm18.5806 0 1.2804.78146 1.3925-2.281464h-2.6729zm-23.7482 38.90908-1.2804-.7815-.4823.7902.4901.7854zm24.2802 38.9091v1.5h2.7041l-1.4316-2.2941zm-18.9226 0-1.2858.7726.4371.7274h.8487zm-15.9588-26.56 1.2857-.7726-.4371-.7274h-.8486zm-.608 0v-1.5h-.8486l-.4371.7274zm-15.9588 26.56v1.5h.8487l.4371-.7274zm-18.84657 0-1.27144-.7959-1.43717 2.2959h2.70861zm24.35617-38.9091 1.2714.7959.4936-.7884-.4869-.7926zm-23.9002-38.90908v-1.500004h-2.68178l1.40365 2.285104zm17.3657.76384 15.6928 26.52204 2.5819-1.5277-15.6929-26.522026zm16.9837 27.25814h.608v-3h-.608zm1.8973-.7334 15.7688-26.52201-2.5786-1.533151-15.7688 26.522061zm14.4795-25.78858h18.5806v-3.000004h-18.5806zm17.3003-2.281471-23.7483 38.909051 2.5607 1.563 23.7483-38.90912zm-23.7405 40.484651 24.2802 38.9091 2.5451-1.5882-24.2802-38.9091zm25.5528 36.615h-18.9226v3h18.9226zm-17.6369.7274-15.9588-26.56-2.5715 1.5451 15.9588 26.5601zm-17.2445-27.2874h-.608v3h.608zm-1.8937.7274-15.9588 26.56 2.5715 1.5452 15.9588-26.5601zm-14.6731 25.8326h-18.84657v3h18.84657zm-17.57513 2.2959 24.35613-38.9091-2.5428-1.5918-24.35621 38.9091zm24.36283-40.4901-23.90017-38.909086-2.55626 1.570206 23.90023 38.90908zm-25.1783-36.62398h18.6566v-3.000004h-18.6566z" fill="#000" mask="url(#c)"/></g><path d="m8 1.5h64v-3h-64zm70.5 6.5v64h3v-64zm-6.5 70.5h-64v3h64zm-70.5-6.5v-64h-3v64zm6.5 6.5c-3.58985 0-6.5-2.9101-6.5-6.5h-3c0 5.2467 4.2533 9.5 9.5 9.5zm70.5-6.5c0 3.5899-2.9101 6.5-6.5 6.5v3c5.2467 0 9.5-4.2533 9.5-9.5zm-6.5-70.5c3.5899 0 6.5 2.91015 6.5 6.5h3c0-5.24671-4.2533-9.5-9.5-9.5zm-64-3c-5.24671 0-9.5 4.2533-9.5 9.5h3c0-3.58985 2.91015-6.5 6.5-6.5z" fill="#000" mask="url(#b)"/></svg>