<svg fill="none" height="80" viewBox="0 0 80 80" width="80" xmlns="http://www.w3.org/2000/svg" xmlns:xlink="http://www.w3.org/1999/xlink"><clipPath id="a"><path d="m0 8c0-4.41828 3.58172-8 8-8h64c4.4183 0 8 3.58172 8 8v64c0 4.4183-3.5817 8-8 8h-64c-4.41828 0-8-3.5817-8-8z"/></clipPath><mask id="b" fill="#fff"><path d="m0 8c0-4.41828 3.58172-8 8-8h64c4.4183 0 8 3.58172 8 8v64c0 4.4183-3.5817 8-8 8h-64c-4.41828 0-8-3.5817-8-8z" fill="#fff"/></mask><mask id="c" fill="#000" height="82" maskUnits="userSpaceOnUse" width="56" x="12" y="-1"><path d="m12-1h56v82h-56z" fill="#fff"/><path d="m13.7635 79v-77.81818h52.4361v13.56498h-35.9833v18.5426h33.2855v13.565h-33.2855v18.5806h36.1353v13.565z" fill="#000"/></mask><g clip-path="url(#a)"><path d="m13.7635 79v-77.81818h52.4361v13.56498h-35.9833v18.5426h33.2855v13.565h-33.2855v18.5806h36.1353v13.565z" fill="#fc4c02"/><path d="m13.7635 79h-1.5v1.5h1.5zm0-77.81818v-1.500004h-1.5v1.500004zm52.4361 0h1.5v-1.500004h-1.5zm0 13.56498v1.5h1.5v-1.5zm-35.9833 0v-1.5h-1.5v1.5zm0 18.5426h-1.5v1.5h1.5zm33.2855 0h1.5v-1.5h-1.5zm0 13.565v1.5h1.5v-1.5zm-33.2855 0v-1.5h-1.5v1.5zm0 18.5806h-1.5v1.5h1.5zm36.1353 0h1.5v-1.5h-1.5zm0 13.565v1.5h1.5v-1.5zm-51.0881 0v-77.81818h-3v77.81818zm-1.5-76.31818h52.4361v-3.000004h-52.4361zm50.9361-1.5v13.56498h3v-13.56498zm1.5 12.06498h-35.9833v3h35.9833zm-37.4833 1.5v18.5426h3v-18.5426zm1.5 20.0426h33.2855v-3h-33.2855zm31.7855-1.5v13.565h3v-13.565zm1.5 12.065h-33.2855v3h33.2855zm-34.7855 1.5v18.5806h3v-18.5806zm1.5 20.0806h36.1353v-3h-36.1353zm34.6353-1.5v13.565h3v-13.565zm1.5 12.065h-52.5881v3h52.5881z" fill="#000" mask="url(#c)"/></g><path d="m8 1.5h64v-3h-64zm70.5 6.5v64h3v-64zm-6.5 70.5h-64v3h64zm-70.5-6.5v-64h-3v64zm6.5 6.5c-3.58985 0-6.5-2.9101-6.5-6.5h-3c0 5.2467 4.2533 9.5 9.5 9.5zm70.5-6.5c0 3.5899-2.9101 6.5-6.5 6.5v3c5.2467 0 9.5-4.2533 9.5-9.5zm-6.5-70.5c3.5899 0 6.5 2.91015 6.5 6.5h3c0-5.24671-4.2533-9.5-9.5-9.5zm-64-3c-5.24671 0-9.5 4.2533-9.5 9.5h3c0-3.58985 2.91015-6.5 6.5-6.5z" fill="#000" mask="url(#b)"/></svg>