<svg fill="none" height="80" viewBox="0 0 80 80" width="80" xmlns="http://www.w3.org/2000/svg" xmlns:xlink="http://www.w3.org/1999/xlink"><clipPath id="a"><path d="m0 8c0-4.41828 3.58172-8 8-8h64c4.4183 0 8 3.58172 8 8v64c0 4.4183-3.5817 8-8 8h-64c-4.41828 0-8-3.5817-8-8z"/></clipPath><mask id="b" fill="#fff"><path d="m0 8c0-4.41828 3.58172-8 8-8h64c4.4183 0 8 3.58172 8 8v64c0 4.4183-3.5817 8-8 8h-64c-4.41828 0-8-3.5817-8-8z" fill="#fff"/></mask><mask id="c" fill="#000" height="85" maskUnits="userSpaceOnUse" width="74" x="3" y="0"><path d="m3 0h74v85h-74z" fill="#fff"/><path d="m34.5532 51.2102h13.3295l6.701 8.6208 6.5924 7.6789 12.424 15.5753h-14.6336l-8.5483-10.5042-4.3828-6.2301zm40.1697-11.3011c0 8.0895-1.5334 14.9716-4.6001 20.6463-3.0426 5.6747-7.196 10.0092-12.4602 13.0035-5.2401 2.9702-11.1321 4.4553-17.6762 4.4553-6.5923 0-12.5085-1.4972-17.7486-4.4915-5.24-2.9943-9.3814-7.3288-12.42397-13.0035-3.04261-5.6747-4.56392-12.5448-4.56392-20.6101 0-8.0895 1.52131-14.9716 4.56392-20.6463 3.04257-5.6747 7.18397-9.99718 12.42397-12.96734 5.2401-2.99433 11.1563-4.49149 17.7486-4.49149 6.5441 0 12.4361 1.49716 17.6762 4.49149 5.2642 2.97016 9.4176 7.29264 12.4602 12.96734 3.0667 5.6747 4.6001 12.5568 4.6001 20.6463zm-15.9013 0c0-5.2401-.7848-9.6591-2.3544-13.2571-1.5454-3.598-3.7308-6.3267-6.5561-8.1861s-6.1335-2.7891-9.9247-2.7891-7.0994.9297-9.9247 2.7891-5.0227 4.5881-6.5923 8.1861c-1.5455 3.598-2.3182 8.017-2.3182 13.2571 0 5.24.7727 9.6591 2.3182 13.2571 1.5696 3.598 3.767 6.3267 6.5923 8.1861 2.8253 1.8593 6.1335 2.789 9.9247 2.789s7.0994-.9297 9.9247-2.789c2.8253-1.8594 5.0107-4.5881 6.5561-8.1861 1.5696-3.598 2.3544-8.0171 2.3544-13.2571z" fill="#000"/></mask><g clip-path="url(#a)"><path d="m34.5532 51.2102h13.3295l6.701 8.6208 6.5924 7.6789 12.424 15.5753h-14.6336l-8.5483-10.5042-4.3828-6.2301zm40.1697-11.3011c0 8.0895-1.5334 14.9716-4.6001 20.6463-3.0426 5.6747-7.196 10.0092-12.4602 13.0035-5.2401 2.9702-11.1321 4.4553-17.6762 4.4553-6.5923 0-12.5085-1.4972-17.7486-4.4915-5.24-2.9943-9.3814-7.3288-12.42397-13.0035-3.04261-5.6747-4.56392-12.5448-4.56392-20.6101 0-8.0895 1.52131-14.9716 4.56392-20.6463 3.04257-5.6747 7.18397-9.99718 12.42397-12.96734 5.2401-2.99433 11.1563-4.49149 17.7486-4.49149 6.5441 0 12.4361 1.49716 17.6762 4.49149 5.2642 2.97016 9.4176 7.29264 12.4602 12.96734 3.0667 5.6747 4.6001 12.5568 4.6001 20.6463zm-15.9013 0c0-5.2401-.7848-9.6591-2.3544-13.2571-1.5454-3.598-3.7308-6.3267-6.5561-8.1861s-6.1335-2.7891-9.9247-2.7891-7.0994.9297-9.9247 2.7891-5.0227 4.5881-6.5923 8.1861c-1.5455 3.598-2.3182 8.017-2.3182 13.2571 0 5.24.7727 9.6591 2.3182 13.2571 1.5696 3.598 3.767 6.3267 6.5923 8.1861 2.8253 1.8593 6.1335 2.789 9.9247 2.789s7.0994-.9297 9.9247-2.789c2.8253-1.8594 5.0107-4.5881 6.5561-8.1861 1.5696-3.598 2.3544-8.0171 2.3544-13.2571z" fill="#fc4c02"/><path d="m34.5532 51.2102v-1.5h-3.0201l1.8249 2.4064zm13.3295 0 1.1843-.9205-.4504-.5795h-.7339zm6.701 8.6208-1.1843.9205.0224.0288.0238.0277zm6.5924 7.6789 1.1726-.9353-.0169-.0212-.0176-.0205zm12.424 15.5753v1.5h3.1152l-1.9426-2.4354zm-14.6336 0-1.1634.9468.4502.5532h.7132zm-8.5483-10.5042-1.2268.863.0302.043.0332.0408zm-4.3828-6.2301 1.2269-.8631-.0155-.022-.0162-.0213zm24.0874-5.7955-1.3196-.7132-.0024.0044zm-12.4602 13.0036.7396 1.3049.002-.0011zm-35.4248-.0363.7442-1.3023zm-12.42397-13.0035-1.32197.7088zm0-41.2564 1.32197.7088zm12.42397-12.96734.7397 1.30495.0045-.00259zm35.4248 0-.7443 1.30238.0072.00402zm12.4602 12.96734-1.322.7088.0024.0043zm-13.6556 7.3892-1.3782.592.0034.0078zm-6.5561-8.1861-.8246 1.253zm-19.8494 0 .8246 1.253zm-6.5923 8.1861-1.3749-.5998-.0034.0078zm0 26.5142-1.3783.592.0034.0078zm6.5923 8.1861.8246-1.253zm19.8494 0-.8246-1.253zm6.5561-8.1861-1.3748-.5998-.0034.0078zm-21.914-.456h13.3295v-3h-13.3295zm12.1452-.5794 6.701 8.6207 2.3686-1.8411-6.701-8.6207zm6.7472 8.6772 6.5923 7.679 2.2763-1.9541-6.5924-7.679zm6.5578 7.6373 12.424 15.5753 2.3453-1.8708-12.424-15.5752zm13.5967 13.1399h-14.6336v3h14.6336zm-13.4701.5532-8.5483-10.5042-2.3269 1.8936 8.5483 10.5042zm-8.4849-10.4205-4.3828-6.2301-2.4537 1.7261 4.3828 6.2301zm-4.4145-6.2734-11.4822-15.1407-2.3904 1.8128 11.4822 15.1406zm25.9923-25.5354c0 7.9026-1.4977 14.5263-4.4197 19.9331l2.6392 1.4264c3.2115-5.9426 4.7805-13.0831 4.7805-21.3595zm-4.4221 19.9375c-2.9179 5.4421-6.877 9.5629-11.8799 12.4085l1.4833 2.6077c5.5256-3.143 9.8732-7.6913 13.0406-13.5986zm-11.8779 12.4074c-4.9953 2.8314-10.6286 4.2602-16.9365 4.2602v3c6.7803 0 12.931-1.5414 18.4158-4.6503zm-16.9365 4.2602c-6.356 0-12.0115-1.4408-17.0044-4.2938l-1.4884 2.6047c5.4873 3.1356 11.6642 4.6891 18.4928 4.6891zm-17.0044-4.2938c-4.979-2.8452-8.9274-6.9661-11.8462-12.41l-2.64394 1.4176c3.16634 5.9055 7.50074 10.4536 13.00174 13.5971zm-11.8462-12.41c-2.89984-5.4085-4.38589-12.022-4.38589-19.9013h-3c0 8.2513 1.55657 15.3779 4.74195 21.3189zm-4.38589-19.9013c0-7.9043 1.48636-14.5297 4.38589-19.9375l-2.64394-1.4176c-3.1857 5.9416-4.74195 13.0804-4.74195 21.3551zm4.38589-19.9375c2.9184-5.443 6.8653-9.5505 11.8417-12.3712l-1.4793-2.60989c-5.5038 3.11963-9.8395 7.65699-13.00634 13.56349zm11.8462-12.37378c4.9929-2.85305 10.6484-4.29385 17.0044-4.29385v-2.999996c-6.8286 0-13.0055 1.553526-18.4928 4.689116zm17.0044-4.29385c6.3057 0 11.9374 1.43985 16.9319 4.29385l1.4885-2.60473c-5.4856-3.13464-11.638-4.689116-18.4204-4.689116zm16.9391 4.29789c5.0001 2.82114 8.9579 6.92854 11.8753 12.36974l2.644-1.4176c-3.1679-5.9082-7.5169-10.4458-13.0451-13.56495zm11.8777 12.37404c2.922 5.4069 4.4197 12.0306 4.4197 19.9332h3c0-8.2764-1.569-15.4169-4.7805-21.3595zm-8.4816 19.9332c0-5.381-.8047-10.0177-2.4795-13.8569l-2.7497 1.1996c1.4644 3.3568 2.2292 7.5582 2.2292 12.6573zm-2.4761-13.8491c-1.6426-3.8242-4.0023-6.802-7.1097-8.8471l-1.6493 2.506c2.5432 1.6737 4.5542 4.1532 6.0025 7.5251zm-7.1097-8.8471c-3.0991-2.0395-6.7018-3.0361-10.7494-3.0361v3c3.5348 0 6.5486.8629 9.1001 2.5421zm-10.7494-3.0361c-4.0476 0-7.6503.9966-10.7493 3.0361l1.6492 2.506c2.5515-1.6792 5.5654-2.5421 9.1001-2.5421zm-10.7493 3.0361c-3.1052 2.0436-5.4759 5.0186-7.1426 8.8393l2.7497 1.1996c1.4725-3.3754 3.4967-5.8577 6.0421-7.5329zm-7.146 8.8471c-1.648 3.8368-2.4399 8.4706-2.4399 13.8491h3c0-5.1016.7535-9.3059 2.1964-12.6651zm-2.4399 13.8491c0 5.3785.7919 10.0123 2.4399 13.8491l2.7565-1.184c-1.4429-3.3592-2.1964-7.5635-2.1964-12.6651zm2.4433 13.8569c1.6667 3.8207 4.0374 6.7957 7.1426 8.8393l1.6492-2.506c-2.5454-1.6752-4.5696-4.1576-6.0421-7.5329zm7.1426 8.8393c3.099 2.0395 6.7017 3.036 10.7493 3.036v-3c-3.5347 0-6.5486-.8628-9.1001-2.542zm10.7493 3.036c4.0476 0 7.6503-.9965 10.7494-3.036l-1.6493-2.506c-2.5515 1.6792-5.5653 2.542-9.1001 2.542zm10.7494-3.036c3.1074-2.0451 5.4671-5.023 7.1097-8.8471l-2.7565-1.184c-1.4483 3.3719-3.4593 5.8514-6.0025 7.5251zm7.1063-8.8393c1.6748-3.8392 2.4795-8.4759 2.4795-13.8569h-3c0 5.0991-.7648 9.3005-2.2292 12.6573z" fill="#000" mask="url(#c)"/></g><path d="m8 1.5h64v-3h-64zm70.5 6.5v64h3v-64zm-6.5 70.5h-64v3h64zm-70.5-6.5v-64h-3v64zm6.5 6.5c-3.58985 0-6.5-2.9101-6.5-6.5h-3c0 5.2467 4.2533 9.5 9.5 9.5zm70.5-6.5c0 3.5899-2.9101 6.5-6.5 6.5v3c5.2467 0 9.5-4.2533 9.5-9.5zm-6.5-70.5c3.5899 0 6.5 2.91015 6.5 6.5h3c0-5.24671-4.2533-9.5-9.5-9.5zm-64-3c-5.24671 0-9.5 4.2533-9.5 9.5h3c0-3.58985 2.91015-6.5 6.5-6.5z" fill="#000" mask="url(#b)"/></svg>